<svg xmlns="http://www.w3.org/2000/svg" xmlns:xlink="http://www.w3.org/1999/xlink" width="400" zoomAndPan="magnify" viewBox="0 0 300 112.499997" height="150" preserveAspectRatio="xMidYMid meet" version="1.0"><defs><g/><clipPath id="824a220fde"><path d="M 11.863281 7.269531 L 108.820312 7.269531 L 108.820312 104.605469 L 11.863281 104.605469 Z M 11.863281 7.269531 " clip-rule="nonzero"/></clipPath><clipPath id="0c6bdc1744"><path d="M 15.597656 7.269531 L 105.085938 7.269531 C 106.078125 7.269531 107.027344 7.664062 107.726562 8.363281 C 108.425781 9.0625 108.820312 10.011719 108.820312 11.003906 L 108.820312 100.734375 C 108.820312 101.726562 108.425781 102.675781 107.726562 103.375 C 107.027344 104.074219 106.078125 104.46875 105.085938 104.46875 L 15.597656 104.46875 C 14.605469 104.46875 13.65625 104.074219 12.957031 103.375 C 12.257812 102.675781 11.863281 101.726562 11.863281 100.734375 L 11.863281 11.003906 C 11.863281 10.011719 12.257812 9.0625 12.957031 8.363281 C 13.65625 7.664062 14.605469 7.269531 15.597656 7.269531 Z M 15.597656 7.269531 " clip-rule="nonzero"/></clipPath><clipPath id="5e5fbac923"><path d="M 12.378906 7.535156 L 108.304688 7.535156 L 108.304688 104.585938 L 12.378906 104.585938 Z M 12.378906 7.535156 " clip-rule="nonzero"/></clipPath><clipPath id="9263f94c4f"><path d="M 22.085938 7.535156 L 98.597656 7.535156 C 103.960938 7.535156 108.304688 11.878906 108.304688 17.242188 L 108.304688 94.539062 C 108.304688 99.902344 103.960938 104.246094 98.597656 104.246094 L 22.085938 104.246094 C 16.726562 104.246094 12.378906 99.902344 12.378906 94.539062 L 12.378906 17.242188 C 12.378906 11.878906 16.726562 7.535156 22.085938 7.535156 Z M 22.085938 7.535156 " clip-rule="nonzero"/></clipPath><clipPath id="0d3eb7c0c9"><path d="M 12.378906 8.050781 L 108.769531 8.050781 L 108.769531 104.4375 L 12.378906 104.4375 Z M 12.378906 8.050781 " clip-rule="nonzero"/></clipPath><clipPath id="f1ef4c66cc"><path d="M 108.777344 62.304688 L 108.449219 61.984375 L 103.046875 56.660156 L 96.964844 50.664062 L 84.574219 38.453125 L 90.316406 32.796875 L 102.707031 45.003906 L 108.777344 50.984375 L 108.777344 39.429688 L 108.574219 39.226562 L 96.183594 27.019531 L 90.429688 21.351562 L 84.566406 27.128906 L 78.824219 32.789062 L 73.3125 38.21875 L 58.046875 53.261719 L 63.796875 58.933594 L 79.066406 43.882812 L 91.457031 56.09375 L 76.191406 71.136719 L 60.34375 86.757812 L 47.949219 74.546875 L 42.199219 68.878906 L 29.710938 56.574219 L 45.5625 40.957031 L 60.828125 25.910156 L 66.339844 20.480469 L 72.082031 14.820312 L 77.945312 9.039062 L 78.949219 8.050781 L 67.675781 8.050781 L 66.445312 9.261719 L 60.703125 14.925781 L 55.191406 20.355469 L 39.921875 35.402344 L 24.074219 51.019531 L 17.996094 45.03125 L 33.84375 29.414062 L 49.113281 14.367188 L 54.621094 8.9375 L 55.519531 8.054688 L 44.035156 8.054688 L 43.371094 8.710938 L 28.101562 23.757812 L 12.378906 39.25 L 12.378906 50.808594 L 18.332031 56.675781 L 23.972656 62.230469 L 36.457031 74.535156 L 42.210938 80.203125 L 54.601562 92.414062 L 60.683594 98.40625 L 66.085938 103.730469 L 66.796875 104.433594 L 77.515625 104.433594 L 77.894531 104.0625 L 93.742188 88.445312 L 108.777344 73.628906 Z M 87.671875 82.457031 L 71.824219 98.074219 L 66.421875 92.75 L 82.269531 77.132812 L 97.539062 62.085938 L 102.9375 67.410156 Z M 54.722656 104.28125 L 54.566406 104.433594 L 43.613281 104.433594 L 43.007812 103.835938 L 30.617188 91.625 L 24.863281 85.957031 L 12.378906 73.65625 L 12.378906 62.554688 L 18.011719 68.101562 L 30.496094 80.40625 L 36.25 86.074219 L 48.640625 98.285156 Z M 54.722656 104.28125 " clip-rule="nonzero"/></clipPath><linearGradient x1="-0.00000180474" gradientTransform="matrix(0.193243, 0, 0, 0.192762, 12.378948, 8.054032)" y1="250" x2="498.799941" gradientUnits="userSpaceOnUse" y2="250" id="f58a539c7d"><stop stop-opacity="1" stop-color="rgb(77.999878%, 56.098938%, 23.498535%)" offset="0"/><stop stop-opacity="1" stop-color="rgb(78.106689%, 56.260681%, 23.655701%)" offset="0.0078125"/><stop stop-opacity="1" stop-color="rgb(78.321838%, 56.584167%, 23.971558%)" offset="0.015625"/><stop stop-opacity="1" stop-color="rgb(78.535461%, 56.907654%, 24.285889%)" offset="0.0234375"/><stop stop-opacity="1" stop-color="rgb(78.75061%, 57.229614%, 24.601746%)" offset="0.03125"/><stop stop-opacity="1" stop-color="rgb(78.965759%, 57.553101%, 24.916077%)" offset="0.0390625"/><stop stop-opacity="1" stop-color="rgb(79.180908%, 57.876587%, 25.231934%)" offset="0.046875"/><stop stop-opacity="1" stop-color="rgb(79.396057%, 58.200073%, 25.546265%)" offset="0.0546875"/><stop stop-opacity="1" stop-color="rgb(79.611206%, 58.52356%, 25.862122%)" offset="0.0625"/><stop stop-opacity="1" stop-color="rgb(79.826355%, 58.84552%, 26.176453%)" offset="0.0703125"/><stop stop-opacity="1" stop-color="rgb(80.041504%, 59.169006%, 26.49231%)" offset="0.078125"/><stop stop-opacity="1" stop-color="rgb(80.256653%, 59.492493%, 26.806641%)" offset="0.0859375"/><stop stop-opacity="1" stop-color="rgb(80.471802%, 59.815979%, 27.122498%)" offset="0.09375"/><stop stop-opacity="1" stop-color="rgb(80.686951%, 60.137939%, 27.436829%)" offset="0.101562"/><stop stop-opacity="1" stop-color="rgb(80.9021%, 60.461426%, 27.75116%)" offset="0.109375"/><stop stop-opacity="1" stop-color="rgb(81.117249%, 60.784912%, 28.067017%)" offset="0.117187"/><stop stop-opacity="1" stop-color="rgb(81.332397%, 61.108398%, 28.381348%)" offset="0.125"/><stop stop-opacity="1" stop-color="rgb(81.547546%, 61.431885%, 28.697205%)" offset="0.132812"/><stop stop-opacity="1" stop-color="rgb(81.762695%, 61.753845%, 29.011536%)" offset="0.140625"/><stop stop-opacity="1" stop-color="rgb(81.977844%, 62.077332%, 29.327393%)" offset="0.148438"/><stop stop-opacity="1" stop-color="rgb(82.191467%, 62.400818%, 29.641724%)" offset="0.15625"/><stop stop-opacity="1" stop-color="rgb(82.406616%, 62.724304%, 29.957581%)" offset="0.164062"/><stop stop-opacity="1" stop-color="rgb(82.621765%, 63.047791%, 30.271912%)" offset="0.171875"/><stop stop-opacity="1" stop-color="rgb(82.836914%, 63.369751%, 30.587769%)" offset="0.179687"/><stop stop-opacity="1" stop-color="rgb(83.052063%, 63.693237%, 30.9021%)" offset="0.1875"/><stop stop-opacity="1" stop-color="rgb(83.267212%, 64.016724%, 31.216431%)" offset="0.195312"/><stop stop-opacity="1" stop-color="rgb(83.482361%, 64.34021%, 31.532288%)" offset="0.203125"/><stop stop-opacity="1" stop-color="rgb(83.69751%, 64.663696%, 31.846619%)" offset="0.210938"/><stop stop-opacity="1" stop-color="rgb(83.912659%, 64.985657%, 32.162476%)" offset="0.21875"/><stop stop-opacity="1" stop-color="rgb(84.127808%, 65.309143%, 32.476807%)" offset="0.226562"/><stop stop-opacity="1" stop-color="rgb(84.342957%, 65.632629%, 32.792664%)" offset="0.234375"/><stop stop-opacity="1" stop-color="rgb(84.558105%, 65.956116%, 33.106995%)" offset="0.242188"/><stop stop-opacity="1" stop-color="rgb(84.773254%, 66.279602%, 33.422852%)" offset="0.25"/><stop stop-opacity="1" stop-color="rgb(84.988403%, 66.601562%, 33.737183%)" offset="0.257812"/><stop stop-opacity="1" stop-color="rgb(85.203552%, 66.925049%, 34.05304%)" offset="0.265625"/><stop stop-opacity="1" stop-color="rgb(85.418701%, 67.248535%, 34.367371%)" offset="0.273437"/><stop stop-opacity="1" stop-color="rgb(85.632324%, 67.572021%, 34.683228%)" offset="0.28125"/><stop stop-opacity="1" stop-color="rgb(85.847473%, 67.893982%, 34.997559%)" offset="0.289062"/><stop stop-opacity="1" stop-color="rgb(86.062622%, 68.217468%, 35.31189%)" offset="0.296875"/><stop stop-opacity="1" stop-color="rgb(86.277771%, 68.540955%, 35.627747%)" offset="0.304688"/><stop stop-opacity="1" stop-color="rgb(86.49292%, 68.864441%, 35.942078%)" offset="0.3125"/><stop stop-opacity="1" stop-color="rgb(86.708069%, 69.187927%, 36.257935%)" offset="0.320312"/><stop stop-opacity="1" stop-color="rgb(86.923218%, 69.509888%, 36.572266%)" offset="0.328125"/><stop stop-opacity="1" stop-color="rgb(87.138367%, 69.833374%, 36.888123%)" offset="0.335937"/><stop stop-opacity="1" stop-color="rgb(87.353516%, 70.15686%, 37.202454%)" offset="0.34375"/><stop stop-opacity="1" stop-color="rgb(87.568665%, 70.480347%, 37.518311%)" offset="0.351562"/><stop stop-opacity="1" stop-color="rgb(87.783813%, 70.803833%, 37.832642%)" offset="0.359375"/><stop stop-opacity="1" stop-color="rgb(87.998962%, 71.125793%, 38.148499%)" offset="0.367187"/><stop stop-opacity="1" stop-color="rgb(88.214111%, 71.44928%, 38.46283%)" offset="0.375"/><stop stop-opacity="1" stop-color="rgb(88.42926%, 71.772766%, 38.777161%)" offset="0.382812"/><stop stop-opacity="1" stop-color="rgb(88.644409%, 72.096252%, 39.093018%)" offset="0.390625"/><stop stop-opacity="1" stop-color="rgb(88.859558%, 72.419739%, 39.407349%)" offset="0.398438"/><stop stop-opacity="1" stop-color="rgb(89.074707%, 72.741699%, 39.723206%)" offset="0.40625"/><stop stop-opacity="1" stop-color="rgb(89.28833%, 73.065186%, 40.037537%)" offset="0.414062"/><stop stop-opacity="1" stop-color="rgb(89.503479%, 73.388672%, 40.353394%)" offset="0.421875"/><stop stop-opacity="1" stop-color="rgb(89.718628%, 73.712158%, 40.667725%)" offset="0.429687"/><stop stop-opacity="1" stop-color="rgb(89.933777%, 74.035645%, 40.983582%)" offset="0.4375"/><stop stop-opacity="1" stop-color="rgb(90.148926%, 74.357605%, 41.297913%)" offset="0.445312"/><stop stop-opacity="1" stop-color="rgb(90.364075%, 74.681091%, 41.61377%)" offset="0.453125"/><stop stop-opacity="1" stop-color="rgb(90.579224%, 75.004578%, 41.928101%)" offset="0.460937"/><stop stop-opacity="1" stop-color="rgb(90.794373%, 75.328064%, 42.243958%)" offset="0.46875"/><stop stop-opacity="1" stop-color="rgb(91.009521%, 75.650024%, 42.558289%)" offset="0.476562"/><stop stop-opacity="1" stop-color="rgb(91.22467%, 75.973511%, 42.87262%)" offset="0.484375"/><stop stop-opacity="1" stop-color="rgb(91.439819%, 76.296997%, 43.188477%)" offset="0.492187"/><stop stop-opacity="1" stop-color="rgb(91.654968%, 76.620483%, 43.502808%)" offset="0.5"/><stop stop-opacity="1" stop-color="rgb(91.870117%, 76.94397%, 43.818665%)" offset="0.507813"/><stop stop-opacity="1" stop-color="rgb(92.085266%, 77.26593%, 44.132996%)" offset="0.515625"/><stop stop-opacity="1" stop-color="rgb(92.300415%, 77.589417%, 44.448853%)" offset="0.523438"/><stop stop-opacity="1" stop-color="rgb(92.515564%, 77.912903%, 44.763184%)" offset="0.53125"/><stop stop-opacity="1" stop-color="rgb(92.730713%, 78.236389%, 45.079041%)" offset="0.539062"/><stop stop-opacity="1" stop-color="rgb(92.944336%, 78.559875%, 45.393372%)" offset="0.546875"/><stop stop-opacity="1" stop-color="rgb(93.159485%, 78.881836%, 45.709229%)" offset="0.554688"/><stop stop-opacity="1" stop-color="rgb(93.374634%, 79.205322%, 46.02356%)" offset="0.5625"/><stop stop-opacity="1" stop-color="rgb(93.589783%, 79.528809%, 46.337891%)" offset="0.570312"/><stop stop-opacity="1" stop-color="rgb(93.804932%, 79.852295%, 46.653748%)" offset="0.578125"/><stop stop-opacity="1" stop-color="rgb(94.020081%, 80.175781%, 46.968079%)" offset="0.585938"/><stop stop-opacity="1" stop-color="rgb(94.235229%, 80.497742%, 47.283936%)" offset="0.59375"/><stop stop-opacity="1" stop-color="rgb(94.450378%, 80.821228%, 47.598267%)" offset="0.601562"/><stop stop-opacity="1" stop-color="rgb(94.665527%, 81.144714%, 47.914124%)" offset="0.609375"/><stop stop-opacity="1" stop-color="rgb(94.880676%, 81.468201%, 48.228455%)" offset="0.617188"/><stop stop-opacity="1" stop-color="rgb(95.095825%, 81.790161%, 48.544312%)" offset="0.625"/><stop stop-opacity="1" stop-color="rgb(95.310974%, 82.113647%, 48.858643%)" offset="0.632812"/><stop stop-opacity="1" stop-color="rgb(95.526123%, 82.437134%, 49.1745%)" offset="0.640625"/><stop stop-opacity="1" stop-color="rgb(95.741272%, 82.76062%, 49.488831%)" offset="0.648438"/><stop stop-opacity="1" stop-color="rgb(95.956421%, 83.084106%, 49.804688%)" offset="0.65625"/><stop stop-opacity="1" stop-color="rgb(96.17157%, 83.406067%, 50.119019%)" offset="0.664062"/><stop stop-opacity="1" stop-color="rgb(96.385193%, 83.729553%, 50.43335%)" offset="0.671875"/><stop stop-opacity="1" stop-color="rgb(96.513367%, 83.992004%, 50.709534%)" offset="0.679688"/><stop stop-opacity="1" stop-color="rgb(96.551514%, 84.191895%, 50.946045%)" offset="0.6875"/><stop stop-opacity="1" stop-color="rgb(96.588135%, 84.391785%, 51.18103%)" offset="0.695312"/><stop stop-opacity="1" stop-color="rgb(96.62323%, 84.590149%, 51.416016%)" offset="0.703125"/><stop stop-opacity="1" stop-color="rgb(96.659851%, 84.790039%, 51.651001%)" offset="0.710938"/><stop stop-opacity="1" stop-color="rgb(96.696472%, 84.988403%, 51.885986%)" offset="0.71875"/><stop stop-opacity="1" stop-color="rgb(96.731567%, 85.186768%, 52.119446%)" offset="0.726562"/><stop stop-opacity="1" stop-color="rgb(96.768188%, 85.386658%, 52.354431%)" offset="0.734375"/><stop stop-opacity="1" stop-color="rgb(96.803284%, 85.585022%, 52.589417%)" offset="0.742188"/><stop stop-opacity="1" stop-color="rgb(96.839905%, 85.783386%, 52.824402%)" offset="0.75"/><stop stop-opacity="1" stop-color="rgb(96.875%, 85.983276%, 53.059387%)" offset="0.757812"/><stop stop-opacity="1" stop-color="rgb(96.911621%, 86.181641%, 53.294373%)" offset="0.765625"/><stop stop-opacity="1" stop-color="rgb(96.946716%, 86.380005%, 53.529358%)" offset="0.773438"/><stop stop-opacity="1" stop-color="rgb(96.983337%, 86.579895%, 53.764343%)" offset="0.78125"/><stop stop-opacity="1" stop-color="rgb(97.019958%, 86.778259%, 53.999329%)" offset="0.789062"/><stop stop-opacity="1" stop-color="rgb(97.055054%, 86.976624%, 54.234314%)" offset="0.796875"/><stop stop-opacity="1" stop-color="rgb(97.091675%, 87.176514%, 54.467773%)" offset="0.804688"/><stop stop-opacity="1" stop-color="rgb(97.12677%, 87.374878%, 54.702759%)" offset="0.8125"/><stop stop-opacity="1" stop-color="rgb(97.163391%, 87.573242%, 54.937744%)" offset="0.820312"/><stop stop-opacity="1" stop-color="rgb(97.198486%, 87.773132%, 55.172729%)" offset="0.828125"/><stop stop-opacity="1" stop-color="rgb(97.235107%, 87.971497%, 55.407715%)" offset="0.835938"/><stop stop-opacity="1" stop-color="rgb(97.270203%, 88.169861%, 55.6427%)" offset="0.84375"/><stop stop-opacity="1" stop-color="rgb(97.306824%, 88.369751%, 55.877686%)" offset="0.851563"/><stop stop-opacity="1" stop-color="rgb(97.343445%, 88.568115%, 56.112671%)" offset="0.859375"/><stop stop-opacity="1" stop-color="rgb(97.37854%, 88.766479%, 56.347656%)" offset="0.867188"/><stop stop-opacity="1" stop-color="rgb(97.415161%, 88.96637%, 56.582642%)" offset="0.875"/><stop stop-opacity="1" stop-color="rgb(97.450256%, 89.164734%, 56.816101%)" offset="0.882813"/><stop stop-opacity="1" stop-color="rgb(97.486877%, 89.363098%, 57.051086%)" offset="0.890625"/><stop stop-opacity="1" stop-color="rgb(97.521973%, 89.562988%, 57.286072%)" offset="0.898438"/><stop stop-opacity="1" stop-color="rgb(97.558594%, 89.761353%, 57.521057%)" offset="0.90625"/><stop stop-opacity="1" stop-color="rgb(97.593689%, 89.959717%, 57.756042%)" offset="0.914062"/><stop stop-opacity="1" stop-color="rgb(97.63031%, 90.159607%, 57.991028%)" offset="0.921875"/><stop stop-opacity="1" stop-color="rgb(97.666931%, 90.357971%, 58.226013%)" offset="0.929688"/><stop stop-opacity="1" stop-color="rgb(97.702026%, 90.557861%, 58.460999%)" offset="0.9375"/><stop stop-opacity="1" stop-color="rgb(97.738647%, 90.756226%, 58.695984%)" offset="0.945312"/><stop stop-opacity="1" stop-color="rgb(97.773743%, 90.95459%, 58.930969%)" offset="0.953125"/><stop stop-opacity="1" stop-color="rgb(97.810364%, 91.15448%, 59.164429%)" offset="0.960938"/><stop stop-opacity="1" stop-color="rgb(97.845459%, 91.352844%, 59.399414%)" offset="0.96875"/><stop stop-opacity="1" stop-color="rgb(97.88208%, 91.551208%, 59.634399%)" offset="0.976562"/><stop stop-opacity="1" stop-color="rgb(97.917175%, 91.751099%, 59.869385%)" offset="0.984375"/><stop stop-opacity="1" stop-color="rgb(97.953796%, 91.949463%, 60.10437%)" offset="0.992188"/><stop stop-opacity="1" stop-color="rgb(97.98584%, 92.123413%, 60.310364%)" offset="1"/></linearGradient><clipPath id="04f86cea0d"><path d="M 47.117188 48.484375 L 108.5625 48.484375 L 108.5625 104.261719 L 47.117188 104.261719 Z M 47.117188 48.484375 " clip-rule="nonzero"/></clipPath><clipPath id="2ff6dcdeb1"><path d="M 56.824219 48.484375 L 98.789062 48.484375 C 104.148438 48.484375 108.496094 52.828125 108.496094 58.191406 L 108.496094 94.554688 C 108.496094 99.914062 104.148438 104.261719 98.789062 104.261719 L 56.824219 104.261719 C 51.464844 104.261719 47.117188 99.914062 47.117188 94.554688 L 47.117188 58.191406 C 47.117188 52.828125 51.464844 48.484375 56.824219 48.484375 Z M 56.824219 48.484375 " clip-rule="nonzero"/></clipPath><clipPath id="95e8ea8a90"><path d="M 50.226562 64 L 65 64 L 65 76 L 50.226562 76 Z M 50.226562 64 " clip-rule="nonzero"/></clipPath><clipPath id="df530bc5e6"><path d="M 50.226562 52 L 105.480469 52 L 105.480469 79 L 50.226562 79 Z M 50.226562 52 " clip-rule="nonzero"/></clipPath><clipPath id="fe12147e98"><path d="M 76.0625 71.511719 L 105.183594 71.511719 L 105.183594 100.632812 L 76.0625 100.632812 Z M 76.0625 71.511719 " clip-rule="nonzero"/></clipPath></defs><g fill="#ffffff" fill-opacity="1"><g transform="translate(119.879568, 70.881451)"><g><path d="M 16.84375 0 L 10.078125 0 L 0.5 -28.328125 L 6.453125 -28.328125 L 13.328125 -7.203125 L 13.8125 -7.203125 L 20.59375 -28.328125 L 26.390625 -28.328125 Z M 16.84375 0 "/></g></g><g transform="translate(146.772703, 70.881451)"><g><path d="M 9.28125 -12.4375 L 9.28125 -4.6875 L 22.8125 -4.6875 L 22.8125 0 L 3.6875 0 L 3.6875 -28.328125 L 22.5 -28.328125 L 22.5 -23.640625 L 9.28125 -23.640625 L 9.28125 -17.015625 L 20.828125 -17.015625 L 20.828125 -12.4375 Z M 9.28125 -12.4375 "/></g></g><g transform="translate(171.127654, 70.881451)"><g><path d="M 11.546875 0.40625 C 8.515625 0.40625 6.101562 -0.234375 4.3125 -1.515625 C 2.53125 -2.804688 1.40625 -4.625 0.9375 -6.96875 L 5.171875 -8.953125 L 5.625 -8.875 C 6.101562 -7.3125 6.78125 -6.171875 7.65625 -5.453125 C 8.539062 -4.734375 9.773438 -4.375 11.359375 -4.375 C 12.878906 -4.375 14.039062 -4.726562 14.84375 -5.4375 C 15.644531 -6.15625 16.046875 -7.191406 16.046875 -8.546875 C 16.046875 -9.878906 15.644531 -10.898438 14.84375 -11.609375 C 14.050781 -12.316406 12.890625 -12.671875 11.359375 -12.671875 L 7.09375 -12.671875 L 7.09375 -17.03125 L 10.8125 -17.03125 C 12.082031 -17.03125 13.085938 -17.347656 13.828125 -17.984375 C 14.578125 -18.617188 14.953125 -19.523438 14.953125 -20.703125 C 14.953125 -21.859375 14.597656 -22.726562 13.890625 -23.3125 C 13.191406 -23.90625 12.222656 -24.203125 10.984375 -24.203125 C 9.722656 -24.203125 8.601562 -23.90625 7.625 -23.3125 C 6.644531 -22.71875 5.859375 -21.914062 5.265625 -20.90625 L 4.828125 -20.828125 L 1.875 -24.265625 C 2.875 -25.609375 4.15625 -26.6875 5.71875 -27.5 C 7.28125 -28.320312 9.140625 -28.734375 11.296875 -28.734375 C 14.265625 -28.734375 16.53125 -28.113281 18.09375 -26.875 C 19.65625 -25.632812 20.4375 -23.890625 20.4375 -21.640625 C 20.4375 -20.285156 20.117188 -19.125 19.484375 -18.15625 C 18.859375 -17.195312 17.953125 -16.367188 16.765625 -15.671875 L 16.765625 -15.265625 C 20.035156 -14.117188 21.671875 -11.796875 21.671875 -8.296875 C 21.671875 -6.535156 21.296875 -5.003906 20.546875 -3.703125 C 19.796875 -2.398438 18.664062 -1.390625 17.15625 -0.671875 C 15.644531 0.046875 13.773438 0.40625 11.546875 0.40625 Z M 11.546875 0.40625 "/></g></g><g transform="translate(194.571957, 70.881451)"><g><path d="M 5.46875 0.171875 C 4.78125 0.171875 4.175781 0.0351562 3.65625 -0.234375 C 3.132812 -0.515625 2.734375 -0.898438 2.453125 -1.390625 C 2.171875 -1.878906 2.03125 -2.4375 2.03125 -3.0625 C 2.03125 -3.675781 2.171875 -4.226562 2.453125 -4.71875 C 2.734375 -5.21875 3.132812 -5.609375 3.65625 -5.890625 C 4.175781 -6.171875 4.78125 -6.3125 5.46875 -6.3125 C 6.164062 -6.3125 6.773438 -6.171875 7.296875 -5.890625 C 7.816406 -5.617188 8.21875 -5.238281 8.5 -4.75 C 8.78125 -4.257812 8.921875 -3.703125 8.921875 -3.078125 C 8.921875 -2.140625 8.601562 -1.363281 7.96875 -0.75 C 7.34375 -0.132812 6.507812 0.171875 5.46875 0.171875 Z M 5.46875 0.171875 "/></g></g><g transform="translate(205.519091, 70.881451)"><g><path d="M 14.625 -28.328125 C 16.65625 -28.328125 18.390625 -27.957031 19.828125 -27.21875 C 21.273438 -26.476562 22.363281 -25.4375 23.09375 -24.09375 C 23.832031 -22.757812 24.203125 -21.207031 24.203125 -19.4375 C 24.203125 -17.664062 23.832031 -16.113281 23.09375 -14.78125 C 22.363281 -13.457031 21.273438 -12.421875 19.828125 -11.671875 C 18.390625 -10.929688 16.65625 -10.5625 14.625 -10.5625 L 9.28125 -10.5625 L 9.28125 0 L 3.6875 0 L 3.6875 -28.328125 Z M 13.890625 -15 C 17.003906 -15 18.5625 -16.476562 18.5625 -19.4375 C 18.5625 -22.40625 17.003906 -23.890625 13.890625 -23.890625 L 9.28125 -23.890625 L 9.28125 -15 Z M 13.890625 -15 "/></g></g><g transform="translate(231.404703, 70.881451)"><g><path d="M 8.875 0.40625 C 6.945312 0.40625 5.476562 -0.113281 4.46875 -1.15625 C 3.457031 -2.195312 2.953125 -3.773438 2.953125 -5.890625 L 2.953125 -29.953125 L 8.3125 -29.953125 L 8.3125 -6.109375 C 8.3125 -4.796875 8.851562 -4.140625 9.9375 -4.140625 C 10.25 -4.140625 10.578125 -4.191406 10.921875 -4.296875 L 11.203125 -4.21875 L 11.6875 -0.09375 C 11.382812 0.0625 10.988281 0.179688 10.5 0.265625 C 10.007812 0.359375 9.46875 0.40625 8.875 0.40625 Z M 8.875 0.40625 "/></g></g><g transform="translate(243.688743, 70.881451)"><g><path d="M 9.78125 0.40625 C 7.382812 0.40625 5.613281 -0.25 4.46875 -1.5625 C 3.320312 -2.875 2.75 -4.753906 2.75 -7.203125 L 2.75 -21.375 L 8.125 -21.375 L 8.125 -7.890625 C 8.125 -6.585938 8.40625 -5.632812 8.96875 -5.03125 C 9.53125 -4.425781 10.394531 -4.125 11.5625 -4.125 C 13.050781 -4.125 14.207031 -4.609375 15.03125 -5.578125 C 15.863281 -6.554688 16.28125 -8.09375 16.28125 -10.1875 L 16.28125 -21.375 L 21.640625 -21.375 L 21.640625 0 L 16.484375 0 L 16.484375 -3.140625 L 16.078125 -3.234375 C 15.398438 -2.003906 14.566406 -1.085938 13.578125 -0.484375 C 12.585938 0.109375 11.320312 0.40625 9.78125 0.40625 Z M 9.78125 0.40625 "/></g></g><g transform="translate(268.411827, 70.881451)"><g><path d="M 10 0.40625 C 8.539062 0.40625 7.203125 0.234375 5.984375 -0.109375 C 4.773438 -0.453125 3.738281 -0.921875 2.875 -1.515625 C 2.019531 -2.117188 1.382812 -2.804688 0.96875 -3.578125 L 3.953125 -6.796875 L 4.359375 -6.796875 C 5.066406 -5.847656 5.90625 -5.132812 6.875 -4.65625 C 7.84375 -4.175781 8.894531 -3.9375 10.03125 -3.9375 C 11.082031 -3.9375 11.875 -4.125 12.40625 -4.5 C 12.9375 -4.875 13.203125 -5.410156 13.203125 -6.109375 C 13.203125 -6.648438 13.007812 -7.101562 12.625 -7.46875 C 12.238281 -7.832031 11.625 -8.117188 10.78125 -8.328125 L 7.9375 -9.015625 C 5.820312 -9.515625 4.273438 -10.285156 3.296875 -11.328125 C 2.328125 -12.367188 1.84375 -13.691406 1.84375 -15.296875 C 1.84375 -16.617188 2.179688 -17.769531 2.859375 -18.75 C 3.535156 -19.738281 4.488281 -20.488281 5.71875 -21 C 6.957031 -21.519531 8.394531 -21.78125 10.03125 -21.78125 C 11.957031 -21.78125 13.550781 -21.5 14.8125 -20.9375 C 16.082031 -20.382812 17.078125 -19.644531 17.796875 -18.71875 L 14.921875 -15.625 L 14.53125 -15.625 C 13.9375 -16.289062 13.265625 -16.78125 12.515625 -17.09375 C 11.773438 -17.40625 10.945312 -17.5625 10.03125 -17.5625 C 7.914062 -17.5625 6.859375 -16.898438 6.859375 -15.578125 C 6.859375 -15.023438 7.054688 -14.570312 7.453125 -14.21875 C 7.847656 -13.875 8.539062 -13.59375 9.53125 -13.375 L 12.171875 -12.796875 C 14.335938 -12.328125 15.921875 -11.578125 16.921875 -10.546875 C 17.921875 -9.523438 18.421875 -8.148438 18.421875 -6.421875 C 18.421875 -5.054688 18.082031 -3.859375 17.40625 -2.828125 C 16.738281 -1.796875 15.769531 -1 14.5 -0.4375 C 13.238281 0.125 11.738281 0.40625 10 0.40625 Z M 10 0.40625 "/></g></g></g><g clip-path="url(#824a220fde)"><g clip-path="url(#0c6bdc1744)"><path fill="#f0d380" d="M 11.863281 7.269531 L 108.820312 7.269531 L 108.820312 104.605469 L 11.863281 104.605469 Z M 11.863281 7.269531 " fill-opacity="1" fill-rule="nonzero"/></g></g><g clip-path="url(#5e5fbac923)"><g clip-path="url(#9263f94c4f)"><path fill="#000000" d="M 12.378906 7.535156 L 108.304688 7.535156 L 108.304688 104.210938 L 12.378906 104.210938 Z M 12.378906 7.535156 " fill-opacity="1" fill-rule="nonzero"/></g></g><g clip-path="url(#0d3eb7c0c9)"><g clip-path="url(#f1ef4c66cc)"><path fill="url(#f58a539c7d)" d="M 12.378906 8.050781 L 12.378906 104.433594 L 108.769531 104.433594 L 108.769531 8.050781 Z M 12.378906 8.050781 " fill-rule="nonzero"/></g></g><g clip-path="url(#04f86cea0d)"><g clip-path="url(#2ff6dcdeb1)"><path fill="#000000" d="M 47.117188 48.484375 L 108.5625 48.484375 L 108.5625 104.261719 L 47.117188 104.261719 Z M 47.117188 48.484375 " fill-opacity="1" fill-rule="nonzero"/></g></g><path fill="#f4f6fc" d="M 79.671875 70.621094 L 71.28125 85.175781 L 67.511719 78.648438 C 64.800781 80.070312 62.234375 81.023438 59.929688 81.179688 L 71.28125 100.839844 L 94.140625 61.222656 C 89.863281 63.121094 84.8125 66.875 79.671875 70.621094 " fill-opacity="1" fill-rule="nonzero"/><g clip-path="url(#95e8ea8a90)"><path fill="#f4f6fc" d="M 64.011719 72.585938 L 59.265625 64.363281 L 50.21875 64.363281 L 56.839844 75.828125 C 58.914062 75.429688 61.351562 74.226562 64.011719 72.585938 " fill-opacity="1" fill-rule="nonzero"/></g><g clip-path="url(#df530bc5e6)"><path fill="#38b6ff" d="M 50.21875 67.527344 C 56.941406 104.207031 100.070312 35.773438 105.378906 64.730469 C 98.246094 25.800781 54.855469 92.816406 50.21875 67.527344 " fill-opacity="1" fill-rule="nonzero"/></g><g clip-path="url(#fe12147e98)"><path fill="#43a047" d="M 105.171875 86.074219 C 105.171875 82.054688 103.542969 78.414062 100.910156 75.777344 C 98.277344 73.144531 94.640625 71.511719 90.625 71.511719 C 86.609375 71.511719 82.972656 73.144531 80.339844 75.777344 C 77.710938 78.414062 76.082031 82.054688 76.082031 86.074219 C 76.082031 90.097656 77.710938 93.738281 80.339844 96.371094 C 82.972656 99.007812 86.609375 100.636719 90.625 100.636719 C 94.640625 100.636719 98.277344 99.007812 100.910156 96.371094 C 103.542969 93.738281 105.171875 90.097656 105.171875 86.074219 " fill-opacity="1" fill-rule="evenodd"/></g><path fill="#ffffff" d="M 88.414062 95.757812 L 93.242188 95.757812 L 93.242188 88.695312 L 100.296875 88.695312 L 100.296875 83.453125 L 93.242188 83.453125 L 93.242188 76.394531 L 88.007812 76.394531 L 88.007812 83.453125 L 80.957031 83.453125 L 80.957031 88.695312 L 88.007812 88.695312 L 88.007812 95.757812 L 88.414062 95.757812 " fill-opacity="1" fill-rule="evenodd"/></svg>