<svg xmlns="http://www.w3.org/2000/svg" xmlns:xlink="http://www.w3.org/1999/xlink" width="600" zoomAndPan="magnify" viewBox="0 0 450 112.499997" height="150" preserveAspectRatio="xMidYMid meet" version="1.0"><defs><g/><clipPath id="d4e4ca0601"><path d="M 15.820312 5.949219 L 115.675781 5.949219 L 115.675781 106.191406 L 15.820312 106.191406 Z M 15.820312 5.949219 " clip-rule="nonzero"/></clipPath><clipPath id="e09831eb9a"><path d="M 19.554688 5.949219 L 111.941406 5.949219 C 112.929688 5.949219 113.878906 6.34375 114.582031 7.042969 C 115.28125 7.742188 115.675781 8.691406 115.675781 9.683594 L 115.675781 102.320312 C 115.675781 103.308594 115.28125 104.257812 114.582031 104.957031 C 113.878906 105.660156 112.929688 106.050781 111.941406 106.050781 L 19.554688 106.050781 C 18.566406 106.050781 17.617188 105.660156 16.914062 104.957031 C 16.214844 104.257812 15.820312 103.308594 15.820312 102.320312 L 15.820312 9.683594 C 15.820312 8.691406 16.214844 7.742188 16.914062 7.042969 C 17.617188 6.34375 18.566406 5.949219 19.554688 5.949219 Z M 19.554688 5.949219 " clip-rule="nonzero"/></clipPath><clipPath id="947ef15151"><path d="M 16.925781 7.023438 L 114.585938 7.023438 L 114.585938 105.449219 L 16.925781 105.449219 Z M 16.925781 7.023438 " clip-rule="nonzero"/></clipPath><clipPath id="bfe10a58bb"><path d="M 26.632812 7.023438 L 104.878906 7.023438 C 110.238281 7.023438 114.585938 11.371094 114.585938 16.730469 L 114.585938 95.488281 C 114.585938 100.851562 110.238281 105.195312 104.878906 105.195312 L 26.632812 105.195312 C 21.269531 105.195312 16.925781 100.851562 16.925781 95.488281 L 16.925781 16.730469 C 16.925781 11.371094 21.269531 7.023438 26.632812 7.023438 Z M 26.632812 7.023438 " clip-rule="nonzero"/></clipPath><clipPath id="00ebcf13fe"><path d="M 16.925781 7.023438 L 114.585938 7.023438 L 114.585938 105.453125 L 16.925781 105.453125 Z M 16.925781 7.023438 " clip-rule="nonzero"/></clipPath><clipPath id="2d1318a5ea"><path d="M 114.59375 62.425781 L 114.261719 62.097656 L 108.789062 56.664062 L 102.625 50.539062 L 90.074219 38.074219 L 95.890625 32.296875 L 108.445312 44.761719 L 114.59375 50.867188 L 114.59375 39.066406 L 114.386719 38.863281 L 101.832031 26.398438 L 96.003906 20.609375 L 90.066406 26.511719 L 84.246094 32.289062 L 78.660156 37.835938 L 63.195312 53.195312 L 69.019531 58.984375 L 84.492188 43.617188 L 97.042969 56.085938 L 81.578125 71.445312 L 65.519531 87.394531 L 52.964844 74.925781 L 47.140625 69.140625 L 34.488281 56.574219 L 50.542969 40.628906 L 66.011719 25.265625 L 71.59375 19.71875 L 77.414062 13.941406 L 83.355469 8.039062 L 84.371094 7.03125 L 72.953125 7.03125 L 71.707031 8.265625 L 65.882812 14.050781 L 60.300781 19.59375 L 44.832031 34.957031 L 28.773438 50.902344 L 22.617188 44.789062 L 38.671875 28.84375 L 54.144531 13.480469 L 59.726562 7.933594 L 60.632812 7.03125 L 49 7.03125 L 48.324219 7.703125 L 32.855469 23.066406 L 16.925781 38.886719 L 16.925781 50.6875 L 22.957031 56.679688 L 28.671875 62.351562 L 41.324219 74.914062 L 47.148438 80.703125 L 59.703125 93.167969 L 65.867188 99.289062 L 71.339844 104.726562 L 72.0625 105.445312 L 82.921875 105.445312 L 83.304688 105.0625 L 99.363281 89.117188 L 114.59375 73.992188 Z M 93.210938 83.003906 L 77.152344 98.953125 L 71.683594 93.515625 L 87.738281 77.566406 L 103.207031 62.203125 L 108.679688 67.640625 Z M 59.828125 105.289062 L 59.667969 105.445312 L 48.570312 105.445312 L 47.957031 104.835938 L 35.402344 92.367188 L 29.574219 86.578125 L 16.925781 74.015625 L 16.925781 62.679688 L 22.628906 68.347656 L 35.28125 80.910156 L 41.109375 86.699219 L 53.664062 99.164062 Z M 59.828125 105.289062 " clip-rule="nonzero"/></clipPath><linearGradient x1="-0.00000308488" gradientTransform="matrix(0.195791, 0, 0, 0.196825, 16.924996, 7.032905)" y1="250" x2="498.799949" gradientUnits="userSpaceOnUse" y2="250" id="2b92c10820"><stop stop-opacity="1" stop-color="rgb(77.999878%, 56.098938%, 23.498535%)" offset="0"/><stop stop-opacity="1" stop-color="rgb(78.106689%, 56.260681%, 23.655701%)" offset="0.0078125"/><stop stop-opacity="1" stop-color="rgb(78.321838%, 56.584167%, 23.971558%)" offset="0.015625"/><stop stop-opacity="1" stop-color="rgb(78.535461%, 56.907654%, 24.285889%)" offset="0.0234375"/><stop stop-opacity="1" stop-color="rgb(78.75061%, 57.229614%, 24.601746%)" offset="0.03125"/><stop stop-opacity="1" stop-color="rgb(78.965759%, 57.553101%, 24.916077%)" offset="0.0390625"/><stop stop-opacity="1" stop-color="rgb(79.180908%, 57.876587%, 25.231934%)" offset="0.046875"/><stop stop-opacity="1" stop-color="rgb(79.396057%, 58.200073%, 25.546265%)" offset="0.0546875"/><stop stop-opacity="1" stop-color="rgb(79.611206%, 58.52356%, 25.862122%)" offset="0.0625"/><stop stop-opacity="1" stop-color="rgb(79.826355%, 58.84552%, 26.176453%)" offset="0.0703125"/><stop stop-opacity="1" stop-color="rgb(80.041504%, 59.169006%, 26.49231%)" offset="0.078125"/><stop stop-opacity="1" stop-color="rgb(80.256653%, 59.492493%, 26.806641%)" offset="0.0859375"/><stop stop-opacity="1" stop-color="rgb(80.471802%, 59.815979%, 27.122498%)" offset="0.09375"/><stop stop-opacity="1" stop-color="rgb(80.686951%, 60.137939%, 27.436829%)" offset="0.101562"/><stop stop-opacity="1" stop-color="rgb(80.9021%, 60.461426%, 27.75116%)" offset="0.109375"/><stop stop-opacity="1" stop-color="rgb(81.117249%, 60.784912%, 28.067017%)" offset="0.117188"/><stop stop-opacity="1" stop-color="rgb(81.332397%, 61.108398%, 28.381348%)" offset="0.125"/><stop stop-opacity="1" stop-color="rgb(81.547546%, 61.431885%, 28.697205%)" offset="0.132812"/><stop stop-opacity="1" stop-color="rgb(81.762695%, 61.753845%, 29.011536%)" offset="0.140625"/><stop stop-opacity="1" stop-color="rgb(81.977844%, 62.077332%, 29.327393%)" offset="0.148438"/><stop stop-opacity="1" stop-color="rgb(82.191467%, 62.400818%, 29.641724%)" offset="0.15625"/><stop stop-opacity="1" stop-color="rgb(82.406616%, 62.724304%, 29.957581%)" offset="0.164062"/><stop stop-opacity="1" stop-color="rgb(82.621765%, 63.047791%, 30.271912%)" offset="0.171875"/><stop stop-opacity="1" stop-color="rgb(82.836914%, 63.369751%, 30.587769%)" offset="0.179687"/><stop stop-opacity="1" stop-color="rgb(83.052063%, 63.693237%, 30.9021%)" offset="0.1875"/><stop stop-opacity="1" stop-color="rgb(83.267212%, 64.016724%, 31.216431%)" offset="0.195312"/><stop stop-opacity="1" stop-color="rgb(83.482361%, 64.34021%, 31.532288%)" offset="0.203125"/><stop stop-opacity="1" stop-color="rgb(83.69751%, 64.663696%, 31.846619%)" offset="0.210938"/><stop stop-opacity="1" stop-color="rgb(83.912659%, 64.985657%, 32.162476%)" offset="0.21875"/><stop stop-opacity="1" stop-color="rgb(84.127808%, 65.309143%, 32.476807%)" offset="0.226562"/><stop stop-opacity="1" stop-color="rgb(84.342957%, 65.632629%, 32.792664%)" offset="0.234375"/><stop stop-opacity="1" stop-color="rgb(84.558105%, 65.956116%, 33.106995%)" offset="0.242188"/><stop stop-opacity="1" stop-color="rgb(84.773254%, 66.279602%, 33.422852%)" offset="0.25"/><stop stop-opacity="1" stop-color="rgb(84.988403%, 66.601562%, 33.737183%)" offset="0.257812"/><stop stop-opacity="1" stop-color="rgb(85.203552%, 66.925049%, 34.05304%)" offset="0.265625"/><stop stop-opacity="1" stop-color="rgb(85.418701%, 67.248535%, 34.367371%)" offset="0.273438"/><stop stop-opacity="1" stop-color="rgb(85.632324%, 67.572021%, 34.683228%)" offset="0.28125"/><stop stop-opacity="1" stop-color="rgb(85.847473%, 67.893982%, 34.997559%)" offset="0.289062"/><stop stop-opacity="1" stop-color="rgb(86.062622%, 68.217468%, 35.31189%)" offset="0.296875"/><stop stop-opacity="1" stop-color="rgb(86.277771%, 68.540955%, 35.627747%)" offset="0.304688"/><stop stop-opacity="1" stop-color="rgb(86.49292%, 68.864441%, 35.942078%)" offset="0.3125"/><stop stop-opacity="1" stop-color="rgb(86.708069%, 69.187927%, 36.257935%)" offset="0.320312"/><stop stop-opacity="1" stop-color="rgb(86.923218%, 69.509888%, 36.572266%)" offset="0.328125"/><stop stop-opacity="1" stop-color="rgb(87.138367%, 69.833374%, 36.888123%)" offset="0.335938"/><stop stop-opacity="1" stop-color="rgb(87.353516%, 70.15686%, 37.202454%)" offset="0.34375"/><stop stop-opacity="1" stop-color="rgb(87.568665%, 70.480347%, 37.518311%)" offset="0.351562"/><stop stop-opacity="1" stop-color="rgb(87.783813%, 70.803833%, 37.832642%)" offset="0.359375"/><stop stop-opacity="1" stop-color="rgb(87.998962%, 71.125793%, 38.148499%)" offset="0.367188"/><stop stop-opacity="1" stop-color="rgb(88.214111%, 71.44928%, 38.46283%)" offset="0.375"/><stop stop-opacity="1" stop-color="rgb(88.42926%, 71.772766%, 38.777161%)" offset="0.382812"/><stop stop-opacity="1" stop-color="rgb(88.644409%, 72.096252%, 39.093018%)" offset="0.390625"/><stop stop-opacity="1" stop-color="rgb(88.859558%, 72.419739%, 39.407349%)" offset="0.398438"/><stop stop-opacity="1" stop-color="rgb(89.074707%, 72.741699%, 39.723206%)" offset="0.40625"/><stop stop-opacity="1" stop-color="rgb(89.28833%, 73.065186%, 40.037537%)" offset="0.414062"/><stop stop-opacity="1" stop-color="rgb(89.503479%, 73.388672%, 40.353394%)" offset="0.421875"/><stop stop-opacity="1" stop-color="rgb(89.718628%, 73.712158%, 40.667725%)" offset="0.429687"/><stop stop-opacity="1" stop-color="rgb(89.933777%, 74.035645%, 40.983582%)" offset="0.4375"/><stop stop-opacity="1" stop-color="rgb(90.148926%, 74.357605%, 41.297913%)" offset="0.445313"/><stop stop-opacity="1" stop-color="rgb(90.364075%, 74.681091%, 41.61377%)" offset="0.453125"/><stop stop-opacity="1" stop-color="rgb(90.579224%, 75.004578%, 41.928101%)" offset="0.460938"/><stop stop-opacity="1" stop-color="rgb(90.794373%, 75.328064%, 42.243958%)" offset="0.46875"/><stop stop-opacity="1" stop-color="rgb(91.009521%, 75.650024%, 42.558289%)" offset="0.476562"/><stop stop-opacity="1" stop-color="rgb(91.22467%, 75.973511%, 42.87262%)" offset="0.484375"/><stop stop-opacity="1" stop-color="rgb(91.439819%, 76.296997%, 43.188477%)" offset="0.492188"/><stop stop-opacity="1" stop-color="rgb(91.654968%, 76.620483%, 43.502808%)" offset="0.5"/><stop stop-opacity="1" stop-color="rgb(91.870117%, 76.94397%, 43.818665%)" offset="0.507812"/><stop stop-opacity="1" stop-color="rgb(92.085266%, 77.26593%, 44.132996%)" offset="0.515625"/><stop stop-opacity="1" stop-color="rgb(92.300415%, 77.589417%, 44.448853%)" offset="0.523437"/><stop stop-opacity="1" stop-color="rgb(92.515564%, 77.912903%, 44.763184%)" offset="0.53125"/><stop stop-opacity="1" stop-color="rgb(92.730713%, 78.236389%, 45.079041%)" offset="0.539062"/><stop stop-opacity="1" stop-color="rgb(92.944336%, 78.559875%, 45.393372%)" offset="0.546875"/><stop stop-opacity="1" stop-color="rgb(93.159485%, 78.881836%, 45.709229%)" offset="0.554688"/><stop stop-opacity="1" stop-color="rgb(93.374634%, 79.205322%, 46.02356%)" offset="0.5625"/><stop stop-opacity="1" stop-color="rgb(93.589783%, 79.528809%, 46.337891%)" offset="0.570312"/><stop stop-opacity="1" stop-color="rgb(93.804932%, 79.852295%, 46.653748%)" offset="0.578125"/><stop stop-opacity="1" stop-color="rgb(94.020081%, 80.175781%, 46.968079%)" offset="0.585938"/><stop stop-opacity="1" stop-color="rgb(94.235229%, 80.497742%, 47.283936%)" offset="0.59375"/><stop stop-opacity="1" stop-color="rgb(94.450378%, 80.821228%, 47.598267%)" offset="0.601562"/><stop stop-opacity="1" stop-color="rgb(94.665527%, 81.144714%, 47.914124%)" offset="0.609375"/><stop stop-opacity="1" stop-color="rgb(94.880676%, 81.468201%, 48.228455%)" offset="0.617187"/><stop stop-opacity="1" stop-color="rgb(95.095825%, 81.790161%, 48.544312%)" offset="0.625"/><stop stop-opacity="1" stop-color="rgb(95.310974%, 82.113647%, 48.858643%)" offset="0.632812"/><stop stop-opacity="1" stop-color="rgb(95.526123%, 82.437134%, 49.1745%)" offset="0.640625"/><stop stop-opacity="1" stop-color="rgb(95.741272%, 82.76062%, 49.488831%)" offset="0.648438"/><stop stop-opacity="1" stop-color="rgb(95.956421%, 83.084106%, 49.804688%)" offset="0.65625"/><stop stop-opacity="1" stop-color="rgb(96.17157%, 83.406067%, 50.119019%)" offset="0.664062"/><stop stop-opacity="1" stop-color="rgb(96.385193%, 83.729553%, 50.43335%)" offset="0.671875"/><stop stop-opacity="1" stop-color="rgb(96.513367%, 83.992004%, 50.709534%)" offset="0.679688"/><stop stop-opacity="1" stop-color="rgb(96.551514%, 84.191895%, 50.946045%)" offset="0.6875"/><stop stop-opacity="1" stop-color="rgb(96.588135%, 84.391785%, 51.18103%)" offset="0.695312"/><stop stop-opacity="1" stop-color="rgb(96.62323%, 84.590149%, 51.416016%)" offset="0.703125"/><stop stop-opacity="1" stop-color="rgb(96.659851%, 84.790039%, 51.651001%)" offset="0.710937"/><stop stop-opacity="1" stop-color="rgb(96.696472%, 84.988403%, 51.885986%)" offset="0.71875"/><stop stop-opacity="1" stop-color="rgb(96.731567%, 85.186768%, 52.119446%)" offset="0.726562"/><stop stop-opacity="1" stop-color="rgb(96.768188%, 85.386658%, 52.354431%)" offset="0.734375"/><stop stop-opacity="1" stop-color="rgb(96.803284%, 85.585022%, 52.589417%)" offset="0.742187"/><stop stop-opacity="1" stop-color="rgb(96.839905%, 85.783386%, 52.824402%)" offset="0.75"/><stop stop-opacity="1" stop-color="rgb(96.875%, 85.983276%, 53.059387%)" offset="0.757812"/><stop stop-opacity="1" stop-color="rgb(96.911621%, 86.181641%, 53.294373%)" offset="0.765625"/><stop stop-opacity="1" stop-color="rgb(96.946716%, 86.380005%, 53.529358%)" offset="0.773438"/><stop stop-opacity="1" stop-color="rgb(96.983337%, 86.579895%, 53.764343%)" offset="0.78125"/><stop stop-opacity="1" stop-color="rgb(97.019958%, 86.778259%, 53.999329%)" offset="0.789062"/><stop stop-opacity="1" stop-color="rgb(97.055054%, 86.976624%, 54.234314%)" offset="0.796875"/><stop stop-opacity="1" stop-color="rgb(97.091675%, 87.176514%, 54.467773%)" offset="0.804688"/><stop stop-opacity="1" stop-color="rgb(97.12677%, 87.374878%, 54.702759%)" offset="0.8125"/><stop stop-opacity="1" stop-color="rgb(97.163391%, 87.573242%, 54.937744%)" offset="0.820312"/><stop stop-opacity="1" stop-color="rgb(97.198486%, 87.773132%, 55.172729%)" offset="0.828125"/><stop stop-opacity="1" stop-color="rgb(97.235107%, 87.971497%, 55.407715%)" offset="0.835938"/><stop stop-opacity="1" stop-color="rgb(97.270203%, 88.169861%, 55.6427%)" offset="0.84375"/><stop stop-opacity="1" stop-color="rgb(97.306824%, 88.369751%, 55.877686%)" offset="0.851562"/><stop stop-opacity="1" stop-color="rgb(97.343445%, 88.568115%, 56.112671%)" offset="0.859375"/><stop stop-opacity="1" stop-color="rgb(97.37854%, 88.766479%, 56.347656%)" offset="0.867188"/><stop stop-opacity="1" stop-color="rgb(97.415161%, 88.96637%, 56.582642%)" offset="0.875"/><stop stop-opacity="1" stop-color="rgb(97.450256%, 89.164734%, 56.816101%)" offset="0.882812"/><stop stop-opacity="1" stop-color="rgb(97.486877%, 89.363098%, 57.051086%)" offset="0.890625"/><stop stop-opacity="1" stop-color="rgb(97.521973%, 89.562988%, 57.286072%)" offset="0.898438"/><stop stop-opacity="1" stop-color="rgb(97.558594%, 89.761353%, 57.521057%)" offset="0.90625"/><stop stop-opacity="1" stop-color="rgb(97.593689%, 89.959717%, 57.756042%)" offset="0.914062"/><stop stop-opacity="1" stop-color="rgb(97.63031%, 90.159607%, 57.991028%)" offset="0.921875"/><stop stop-opacity="1" stop-color="rgb(97.666931%, 90.357971%, 58.226013%)" offset="0.929688"/><stop stop-opacity="1" stop-color="rgb(97.702026%, 90.557861%, 58.460999%)" offset="0.9375"/><stop stop-opacity="1" stop-color="rgb(97.738647%, 90.756226%, 58.695984%)" offset="0.945312"/><stop stop-opacity="1" stop-color="rgb(97.773743%, 90.95459%, 58.930969%)" offset="0.953125"/><stop stop-opacity="1" stop-color="rgb(97.810364%, 91.15448%, 59.164429%)" offset="0.960937"/><stop stop-opacity="1" stop-color="rgb(97.845459%, 91.352844%, 59.399414%)" offset="0.96875"/><stop stop-opacity="1" stop-color="rgb(97.88208%, 91.551208%, 59.634399%)" offset="0.976562"/><stop stop-opacity="1" stop-color="rgb(97.917175%, 91.751099%, 59.869385%)" offset="0.984375"/><stop stop-opacity="1" stop-color="rgb(97.953796%, 91.949463%, 60.10437%)" offset="0.992188"/><stop stop-opacity="1" stop-color="rgb(97.98584%, 92.123413%, 60.310364%)" offset="1"/></linearGradient><clipPath id="56915bf5f6"><path d="M 51.375 47.515625 L 114.652344 47.515625 L 114.652344 104.957031 L 51.375 104.957031 Z M 51.375 47.515625 " clip-rule="nonzero"/></clipPath><clipPath id="eda882f789"><path d="M 61.082031 47.515625 L 104.878906 47.515625 C 110.238281 47.515625 114.585938 51.863281 114.585938 57.222656 L 114.585938 95.25 C 114.585938 100.613281 110.238281 104.957031 104.878906 104.957031 L 61.082031 104.957031 C 55.722656 104.957031 51.375 100.613281 51.375 95.25 L 51.375 57.222656 C 51.375 51.863281 55.722656 47.515625 61.082031 47.515625 Z M 61.082031 47.515625 " clip-rule="nonzero"/></clipPath><clipPath id="73325e9488"><path d="M 54.574219 63 L 69 63 L 69 76 L 54.574219 76 Z M 54.574219 63 " clip-rule="nonzero"/></clipPath><clipPath id="8995b184b2"><path d="M 54.574219 51 L 111.480469 51 L 111.480469 79 L 54.574219 79 Z M 54.574219 51 " clip-rule="nonzero"/></clipPath><clipPath id="aa906aaaa3"><path d="M 81.183594 71.234375 L 111.175781 71.234375 L 111.175781 101.222656 L 81.183594 101.222656 Z M 81.183594 71.234375 " clip-rule="nonzero"/></clipPath></defs><g fill="#f0d380" fill-opacity="1"><g transform="translate(128.059123, 84.285627)"><g><path d="M 31 0 L 18.546875 0 L 0.921875 -52.15625 L 11.875 -52.15625 L 24.546875 -13.265625 L 25.4375 -13.265625 L 37.921875 -52.15625 L 48.59375 -52.15625 Z M 31 0 "/></g></g></g><g fill="#f0d380" fill-opacity="1"><g transform="translate(177.565205, 84.285627)"><g><path d="M 17.09375 -22.90625 L 17.09375 -8.640625 L 41.984375 -8.640625 L 41.984375 0 L 6.78125 0 L 6.78125 -52.15625 L 41.421875 -52.15625 L 41.421875 -43.53125 L 17.09375 -43.53125 L 17.09375 -31.328125 L 38.34375 -31.328125 L 38.34375 -22.90625 Z M 17.09375 -22.90625 "/></g></g></g><g fill="#f0d380" fill-opacity="1"><g transform="translate(222.398888, 84.285627)"><g><path d="M 21.265625 0.75 C 15.671875 0.75 11.234375 -0.429688 7.953125 -2.796875 C 4.671875 -5.160156 2.59375 -8.507812 1.71875 -12.84375 L 9.53125 -16.484375 L 10.34375 -16.34375 C 11.226562 -13.457031 12.484375 -11.351562 14.109375 -10.03125 C 15.734375 -8.71875 18 -8.0625 20.90625 -8.0625 C 23.707031 -8.0625 25.84375 -8.710938 27.3125 -10.015625 C 28.789062 -11.328125 29.53125 -13.234375 29.53125 -15.734375 C 29.53125 -18.179688 28.800781 -20.054688 27.34375 -21.359375 C 25.882812 -22.671875 23.738281 -23.328125 20.90625 -23.328125 L 13.0625 -23.328125 L 13.0625 -31.359375 L 19.90625 -31.359375 C 22.238281 -31.359375 24.09375 -31.941406 25.46875 -33.109375 C 26.851562 -34.273438 27.546875 -35.9375 27.546875 -38.09375 C 27.546875 -40.238281 26.894531 -41.851562 25.59375 -42.9375 C 24.300781 -44.019531 22.515625 -44.5625 20.234375 -44.5625 C 17.898438 -44.5625 15.832031 -44.015625 14.03125 -42.921875 C 12.238281 -41.828125 10.796875 -40.351562 9.703125 -38.5 L 8.890625 -38.34375 L 3.453125 -44.671875 C 5.285156 -47.140625 7.640625 -49.128906 10.515625 -50.640625 C 13.398438 -52.148438 16.828125 -52.90625 20.796875 -52.90625 C 26.265625 -52.90625 30.4375 -51.765625 33.3125 -49.484375 C 36.195312 -47.203125 37.640625 -43.988281 37.640625 -39.84375 C 37.640625 -37.351562 37.054688 -35.21875 35.890625 -33.4375 C 34.722656 -31.664062 33.046875 -30.140625 30.859375 -28.859375 L 30.859375 -28.109375 C 36.878906 -25.992188 39.890625 -21.710938 39.890625 -15.265625 C 39.890625 -12.035156 39.195312 -9.21875 37.8125 -6.8125 C 36.4375 -4.40625 34.359375 -2.539062 31.578125 -1.21875 C 28.796875 0.09375 25.359375 0.75 21.265625 0.75 Z M 21.265625 0.75 "/></g></g></g><g fill="#5ce1e6" fill-opacity="1"><g transform="translate(265.565167, 84.285627)"><g><path d="M 10.0625 0.328125 C 8.800781 0.328125 7.6875 0.0703125 6.71875 -0.4375 C 5.757812 -0.957031 5.023438 -1.664062 4.515625 -2.5625 C 4.003906 -3.46875 3.75 -4.492188 3.75 -5.640625 C 3.75 -6.773438 4.003906 -7.796875 4.515625 -8.703125 C 5.023438 -9.609375 5.757812 -10.320312 6.71875 -10.84375 C 7.6875 -11.363281 8.800781 -11.625 10.0625 -11.625 C 11.34375 -11.625 12.460938 -11.367188 13.421875 -10.859375 C 14.390625 -10.347656 15.128906 -9.640625 15.640625 -8.734375 C 16.148438 -7.835938 16.40625 -6.816406 16.40625 -5.671875 C 16.40625 -3.929688 15.828125 -2.492188 14.671875 -1.359375 C 13.523438 -0.234375 11.988281 0.328125 10.0625 0.328125 Z M 10.0625 0.328125 "/></g></g></g><g fill="#7ed957" fill-opacity="1"><g transform="translate(285.725563, 84.285627)"><g><path d="M 26.9375 -52.15625 C 30.664062 -52.15625 33.851562 -51.46875 36.5 -50.09375 C 39.15625 -48.726562 41.160156 -46.816406 42.515625 -44.359375 C 43.878906 -41.898438 44.5625 -39.039062 44.5625 -35.78125 C 44.5625 -32.519531 43.878906 -29.664062 42.515625 -27.21875 C 41.160156 -24.769531 39.15625 -22.859375 36.5 -21.484375 C 33.851562 -20.117188 30.664062 -19.4375 26.9375 -19.4375 L 17.09375 -19.4375 L 17.09375 0 L 6.78125 0 L 6.78125 -52.15625 Z M 25.578125 -27.609375 C 31.304688 -27.609375 34.171875 -30.332031 34.171875 -35.78125 C 34.171875 -41.25 31.304688 -43.984375 25.578125 -43.984375 L 17.09375 -43.984375 L 17.09375 -27.609375 Z M 25.578125 -27.609375 "/></g></g></g><g fill="#7ed957" fill-opacity="1"><g transform="translate(333.37695, 84.285627)"><g><path d="M 16.34375 0.75 C 12.800781 0.75 10.09375 -0.207031 8.21875 -2.125 C 6.351562 -4.039062 5.421875 -6.945312 5.421875 -10.84375 L 5.421875 -55.15625 L 15.296875 -55.15625 L 15.296875 -11.234375 C 15.296875 -8.835938 16.296875 -7.640625 18.296875 -7.640625 C 18.867188 -7.640625 19.476562 -7.734375 20.125 -7.921875 L 20.625 -7.78125 L 21.515625 -0.171875 C 20.960938 0.109375 20.234375 0.332031 19.328125 0.5 C 18.429688 0.664062 17.4375 0.75 16.34375 0.75 Z M 16.34375 0.75 "/></g></g></g><g fill="#7ed957" fill-opacity="1"><g transform="translate(355.989959, 84.285627)"><g><path d="M 18.015625 0.75 C 13.585938 0.75 10.320312 -0.457031 8.21875 -2.875 C 6.113281 -5.289062 5.0625 -8.753906 5.0625 -13.265625 L 5.0625 -39.34375 L 14.953125 -39.34375 L 14.953125 -14.515625 C 14.953125 -12.117188 15.46875 -10.363281 16.5 -9.25 C 17.53125 -8.144531 19.128906 -7.59375 21.296875 -7.59375 C 24.035156 -7.59375 26.164062 -8.488281 27.6875 -10.28125 C 29.207031 -12.082031 29.96875 -14.910156 29.96875 -18.765625 L 29.96875 -39.34375 L 39.84375 -39.34375 L 39.84375 0 L 30.359375 0 L 30.359375 -5.78125 L 29.609375 -5.953125 C 28.347656 -3.691406 26.804688 -2.007812 24.984375 -0.90625 C 23.171875 0.195312 20.847656 0.75 18.015625 0.75 Z M 18.015625 0.75 "/></g></g></g><g fill="#7ed957" fill-opacity="1"><g transform="translate(401.501314, 84.285627)"><g><path d="M 18.40625 0.75 C 15.71875 0.75 13.253906 0.4375 11.015625 -0.1875 C 8.785156 -0.820312 6.878906 -1.691406 5.296875 -2.796875 C 3.710938 -3.898438 2.539062 -5.164062 1.78125 -6.59375 L 7.28125 -12.515625 L 8.03125 -12.515625 C 9.332031 -10.753906 10.875 -9.429688 12.65625 -8.546875 C 14.445312 -7.671875 16.390625 -7.234375 18.484375 -7.234375 C 20.410156 -7.234375 21.859375 -7.578125 22.828125 -8.265625 C 23.804688 -8.960938 24.296875 -9.953125 24.296875 -11.234375 C 24.296875 -12.234375 23.941406 -13.070312 23.234375 -13.75 C 22.535156 -14.425781 21.398438 -14.957031 19.828125 -15.34375 L 14.625 -16.59375 C 10.726562 -17.519531 7.878906 -18.9375 6.078125 -20.84375 C 4.285156 -22.757812 3.390625 -25.191406 3.390625 -28.140625 C 3.390625 -30.597656 4.015625 -32.726562 5.265625 -34.53125 C 6.515625 -36.34375 8.273438 -37.722656 10.546875 -38.671875 C 12.816406 -39.617188 15.460938 -40.09375 18.484375 -40.09375 C 22.023438 -40.09375 24.957031 -39.582031 27.28125 -38.5625 C 29.613281 -37.539062 31.4375 -36.175781 32.75 -34.46875 L 27.46875 -28.75 L 26.75 -28.75 C 25.65625 -29.988281 24.425781 -30.894531 23.0625 -31.46875 C 21.695312 -32.039062 20.171875 -32.328125 18.484375 -32.328125 C 14.578125 -32.328125 12.625 -31.113281 12.625 -28.6875 C 12.625 -27.664062 12.988281 -26.832031 13.71875 -26.1875 C 14.445312 -25.539062 15.722656 -25.015625 17.546875 -24.609375 L 22.40625 -23.546875 C 26.394531 -22.691406 29.3125 -21.316406 31.15625 -19.421875 C 33 -17.535156 33.921875 -15 33.921875 -11.8125 C 33.921875 -9.3125 33.300781 -7.109375 32.0625 -5.203125 C 30.832031 -3.304688 29.050781 -1.835938 26.71875 -0.796875 C 24.382812 0.234375 21.613281 0.75 18.40625 0.75 Z M 18.40625 0.75 "/></g></g></g><g clip-path="url(#d4e4ca0601)"><g clip-path="url(#e09831eb9a)"><path fill="#f0d380" d="M 15.820312 5.949219 L 115.675781 5.949219 L 115.675781 106.191406 L 15.820312 106.191406 Z M 15.820312 5.949219 " fill-opacity="1" fill-rule="nonzero"/></g></g><g clip-path="url(#947ef15151)"><g clip-path="url(#bfe10a58bb)"><path fill="#000000" d="M 16.925781 7.023438 L 114.585938 7.023438 L 114.585938 105.066406 L 16.925781 105.066406 Z M 16.925781 7.023438 " fill-opacity="1" fill-rule="nonzero"/></g></g><g clip-path="url(#00ebcf13fe)"><g clip-path="url(#2d1318a5ea)"><path fill="url(#2b92c10820)" d="M 16.925781 7.03125 L 16.925781 105.445312 L 114.585938 105.445312 L 114.585938 7.03125 Z M 16.925781 7.03125 " fill-rule="nonzero"/></g></g><g clip-path="url(#56915bf5f6)"><g clip-path="url(#eda882f789)"><path fill="#000000" d="M 51.375 47.515625 L 114.652344 47.515625 L 114.652344 104.957031 L 51.375 104.957031 Z M 51.375 47.515625 " fill-opacity="1" fill-rule="nonzero"/></g></g><path fill="#f4f6fc" d="M 84.902344 70.316406 L 76.257812 85.304688 L 72.378906 78.582031 C 69.585938 80.046875 66.941406 81.027344 64.566406 81.191406 L 76.257812 101.4375 L 99.800781 60.632812 C 95.394531 62.589844 90.195312 66.457031 84.902344 70.316406 " fill-opacity="1" fill-rule="nonzero"/><g clip-path="url(#73325e9488)"><path fill="#f4f6fc" d="M 68.773438 72.335938 L 63.882812 63.871094 L 54.570312 63.871094 L 61.386719 75.675781 C 63.523438 75.265625 66.03125 74.027344 68.773438 72.335938 " fill-opacity="1" fill-rule="nonzero"/></g><g clip-path="url(#8995b184b2)"><path fill="#38b6ff" d="M 54.570312 67.128906 C 61.492188 104.902344 105.910156 34.425781 111.375 64.25 C 104.027344 24.15625 59.34375 93.171875 54.570312 67.128906 " fill-opacity="1" fill-rule="nonzero"/></g><g clip-path="url(#aa906aaaa3)"><path fill="#43a047" d="M 111.160156 86.230469 C 111.160156 82.089844 109.484375 78.339844 106.773438 75.625 C 104.0625 72.910156 100.316406 71.234375 96.183594 71.234375 C 92.046875 71.234375 88.300781 72.910156 85.589844 75.625 C 82.878906 78.339844 81.203125 82.089844 81.203125 86.230469 C 81.203125 90.371094 82.878906 94.121094 85.589844 96.835938 C 88.300781 99.546875 92.046875 101.226562 96.183594 101.226562 C 100.316406 101.226562 104.0625 99.546875 106.773438 96.835938 C 109.484375 94.121094 111.160156 90.371094 111.160156 86.230469 " fill-opacity="1" fill-rule="evenodd"/></g><path fill="#ffffff" d="M 93.902344 96.199219 L 98.878906 96.199219 L 98.878906 88.929688 L 106.140625 88.929688 L 106.140625 83.53125 L 98.878906 83.53125 L 98.878906 76.261719 L 93.484375 76.261719 L 93.484375 83.53125 L 86.222656 83.53125 L 86.222656 88.929688 L 93.484375 88.929688 L 93.484375 96.199219 L 93.902344 96.199219 " fill-opacity="1" fill-rule="evenodd"/></svg>