<svg xmlns="http://www.w3.org/2000/svg" xmlns:xlink="http://www.w3.org/1999/xlink" width="700" zoomAndPan="magnify" viewBox="0 0 525 112.499997" height="150" preserveAspectRatio="xMidYMid meet" version="1.0"><defs><g/><clipPath id="d21956d28b"><path d="M 13.898438 0 L 125.621094 0 L 125.621094 112.003906 L 13.898438 112.003906 Z M 13.898438 0 " clip-rule="nonzero"/></clipPath><clipPath id="4a17455504"><path d="M 17.632812 0 L 121.886719 0 C 123.949219 0 125.621094 1.671875 125.621094 3.734375 L 125.621094 108.269531 C 125.621094 110.332031 123.949219 112.003906 121.886719 112.003906 L 17.632812 112.003906 C 15.570312 112.003906 13.898438 110.332031 13.898438 108.269531 L 13.898438 3.734375 C 13.898438 1.671875 15.570312 0 17.632812 0 Z M 17.632812 0 " clip-rule="nonzero"/></clipPath><clipPath id="30e9cf248c"><path d="M 15 1 L 124.402344 1 L 124.402344 111 L 15 111 Z M 15 1 " clip-rule="nonzero"/></clipPath><clipPath id="72a6ffa948"><path d="M 24.839844 1.203125 L 114.695312 1.203125 C 117.269531 1.203125 119.738281 2.226562 121.558594 4.046875 C 123.378906 5.867188 124.402344 8.335938 124.402344 10.910156 L 124.402344 101.339844 C 124.402344 103.914062 123.378906 106.382812 121.558594 108.203125 C 119.738281 110.023438 117.269531 111.046875 114.695312 111.046875 L 24.839844 111.046875 C 22.265625 111.046875 19.796875 110.023438 17.976562 108.203125 C 16.15625 106.382812 15.132812 103.914062 15.132812 101.339844 L 15.132812 10.910156 C 15.132812 8.335938 16.15625 5.867188 17.976562 4.046875 C 19.796875 2.226562 22.265625 1.203125 24.839844 1.203125 Z M 24.839844 1.203125 " clip-rule="nonzero"/></clipPath><clipPath id="6c9d41fd1b"><path d="M 15.132812 1.203125 L 124.402344 1.203125 L 124.402344 111.332031 L 15.132812 111.332031 Z M 15.132812 1.203125 " clip-rule="nonzero"/></clipPath><clipPath id="14f18dc504"><path d="M 124.410156 63.191406 L 124.042969 62.824219 L 117.917969 56.742188 L 111.023438 49.890625 L 96.976562 35.941406 L 103.488281 29.476562 L 117.535156 43.425781 L 124.410156 50.257812 L 124.410156 37.054688 L 124.183594 36.824219 L 110.136719 22.878906 L 103.613281 16.402344 L 96.96875 23.003906 L 90.457031 29.46875 L 84.207031 35.675781 L 66.902344 52.859375 L 73.421875 59.335938 L 90.734375 42.148438 L 104.777344 56.09375 L 87.472656 73.28125 L 69.503906 91.125 L 55.457031 77.175781 L 48.9375 70.703125 L 34.78125 56.644531 L 52.75 38.800781 L 70.054688 21.609375 L 76.304688 15.40625 L 82.8125 8.941406 L 89.460938 2.339844 L 90.597656 1.210938 L 77.820312 1.210938 L 76.425781 2.59375 L 69.914062 9.0625 L 63.667969 15.265625 L 46.355469 32.453125 L 28.390625 50.296875 L 21.5 43.457031 L 39.46875 25.613281 L 56.777344 8.425781 L 63.019531 2.21875 L 64.039062 1.210938 L 51.019531 1.210938 L 50.265625 1.960938 L 32.957031 19.152344 L 15.132812 36.851562 L 15.132812 50.054688 L 21.882812 56.757812 L 28.273438 63.105469 L 42.429688 77.164062 L 48.949219 83.640625 L 62.996094 97.585938 L 69.894531 104.433594 L 76.015625 110.515625 L 76.824219 111.324219 L 88.972656 111.324219 L 89.40625 110.894531 L 107.371094 93.054688 L 124.410156 76.128906 Z M 100.488281 86.214844 L 82.523438 104.058594 L 76.398438 97.972656 L 94.363281 80.128906 L 111.671875 62.941406 L 117.792969 69.023438 Z M 63.132812 111.148438 L 62.957031 111.324219 L 50.539062 111.324219 L 49.851562 110.640625 L 35.804688 96.6875 L 29.285156 90.214844 L 15.132812 76.15625 L 15.132812 63.476562 L 21.515625 69.8125 L 35.671875 83.871094 L 42.191406 90.347656 L 56.238281 104.296875 Z M 63.132812 111.148438 " clip-rule="nonzero"/></clipPath><linearGradient x1="-0.00000265739" gradientTransform="matrix(0.219066, 0, 0, 0.220223, 15.132963, 1.211648)" y1="250" x2="498.799937" gradientUnits="userSpaceOnUse" y2="250" id="bfa57d6db9"><stop stop-opacity="1" stop-color="rgb(77.999878%, 56.098938%, 23.498535%)" offset="0"/><stop stop-opacity="1" stop-color="rgb(78.106689%, 56.260681%, 23.655701%)" offset="0.0078125"/><stop stop-opacity="1" stop-color="rgb(78.321838%, 56.584167%, 23.971558%)" offset="0.015625"/><stop stop-opacity="1" stop-color="rgb(78.535461%, 56.907654%, 24.285889%)" offset="0.0234375"/><stop stop-opacity="1" stop-color="rgb(78.75061%, 57.229614%, 24.601746%)" offset="0.03125"/><stop stop-opacity="1" stop-color="rgb(78.965759%, 57.553101%, 24.916077%)" offset="0.0390625"/><stop stop-opacity="1" stop-color="rgb(79.180908%, 57.876587%, 25.231934%)" offset="0.046875"/><stop stop-opacity="1" stop-color="rgb(79.396057%, 58.200073%, 25.546265%)" offset="0.0546875"/><stop stop-opacity="1" stop-color="rgb(79.611206%, 58.52356%, 25.862122%)" offset="0.0625"/><stop stop-opacity="1" stop-color="rgb(79.826355%, 58.84552%, 26.176453%)" offset="0.0703125"/><stop stop-opacity="1" stop-color="rgb(80.041504%, 59.169006%, 26.49231%)" offset="0.078125"/><stop stop-opacity="1" stop-color="rgb(80.256653%, 59.492493%, 26.806641%)" offset="0.0859375"/><stop stop-opacity="1" stop-color="rgb(80.471802%, 59.815979%, 27.122498%)" offset="0.09375"/><stop stop-opacity="1" stop-color="rgb(80.686951%, 60.137939%, 27.436829%)" offset="0.101563"/><stop stop-opacity="1" stop-color="rgb(80.9021%, 60.461426%, 27.75116%)" offset="0.109375"/><stop stop-opacity="1" stop-color="rgb(81.117249%, 60.784912%, 28.067017%)" offset="0.117188"/><stop stop-opacity="1" stop-color="rgb(81.332397%, 61.108398%, 28.381348%)" offset="0.125"/><stop stop-opacity="1" stop-color="rgb(81.547546%, 61.431885%, 28.697205%)" offset="0.132812"/><stop stop-opacity="1" stop-color="rgb(81.762695%, 61.753845%, 29.011536%)" offset="0.140625"/><stop stop-opacity="1" stop-color="rgb(81.977844%, 62.077332%, 29.327393%)" offset="0.148438"/><stop stop-opacity="1" stop-color="rgb(82.191467%, 62.400818%, 29.641724%)" offset="0.15625"/><stop stop-opacity="1" stop-color="rgb(82.406616%, 62.724304%, 29.957581%)" offset="0.164062"/><stop stop-opacity="1" stop-color="rgb(82.621765%, 63.047791%, 30.271912%)" offset="0.171875"/><stop stop-opacity="1" stop-color="rgb(82.836914%, 63.369751%, 30.587769%)" offset="0.179688"/><stop stop-opacity="1" stop-color="rgb(83.052063%, 63.693237%, 30.9021%)" offset="0.1875"/><stop stop-opacity="1" stop-color="rgb(83.267212%, 64.016724%, 31.216431%)" offset="0.195312"/><stop stop-opacity="1" stop-color="rgb(83.482361%, 64.34021%, 31.532288%)" offset="0.203125"/><stop stop-opacity="1" stop-color="rgb(83.69751%, 64.663696%, 31.846619%)" offset="0.210938"/><stop stop-opacity="1" stop-color="rgb(83.912659%, 64.985657%, 32.162476%)" offset="0.21875"/><stop stop-opacity="1" stop-color="rgb(84.127808%, 65.309143%, 32.476807%)" offset="0.226562"/><stop stop-opacity="1" stop-color="rgb(84.342957%, 65.632629%, 32.792664%)" offset="0.234375"/><stop stop-opacity="1" stop-color="rgb(84.558105%, 65.956116%, 33.106995%)" offset="0.242187"/><stop stop-opacity="1" stop-color="rgb(84.773254%, 66.279602%, 33.422852%)" offset="0.25"/><stop stop-opacity="1" stop-color="rgb(84.988403%, 66.601562%, 33.737183%)" offset="0.257813"/><stop stop-opacity="1" stop-color="rgb(85.203552%, 66.925049%, 34.05304%)" offset="0.265625"/><stop stop-opacity="1" stop-color="rgb(85.418701%, 67.248535%, 34.367371%)" offset="0.273438"/><stop stop-opacity="1" stop-color="rgb(85.632324%, 67.572021%, 34.683228%)" offset="0.28125"/><stop stop-opacity="1" stop-color="rgb(85.847473%, 67.893982%, 34.997559%)" offset="0.289062"/><stop stop-opacity="1" stop-color="rgb(86.062622%, 68.217468%, 35.31189%)" offset="0.296875"/><stop stop-opacity="1" stop-color="rgb(86.277771%, 68.540955%, 35.627747%)" offset="0.304688"/><stop stop-opacity="1" stop-color="rgb(86.49292%, 68.864441%, 35.942078%)" offset="0.3125"/><stop stop-opacity="1" stop-color="rgb(86.708069%, 69.187927%, 36.257935%)" offset="0.320313"/><stop stop-opacity="1" stop-color="rgb(86.923218%, 69.509888%, 36.572266%)" offset="0.328125"/><stop stop-opacity="1" stop-color="rgb(87.138367%, 69.833374%, 36.888123%)" offset="0.335938"/><stop stop-opacity="1" stop-color="rgb(87.353516%, 70.15686%, 37.202454%)" offset="0.34375"/><stop stop-opacity="1" stop-color="rgb(87.568665%, 70.480347%, 37.518311%)" offset="0.351562"/><stop stop-opacity="1" stop-color="rgb(87.783813%, 70.803833%, 37.832642%)" offset="0.359375"/><stop stop-opacity="1" stop-color="rgb(87.998962%, 71.125793%, 38.148499%)" offset="0.367188"/><stop stop-opacity="1" stop-color="rgb(88.214111%, 71.44928%, 38.46283%)" offset="0.375"/><stop stop-opacity="1" stop-color="rgb(88.42926%, 71.772766%, 38.777161%)" offset="0.382813"/><stop stop-opacity="1" stop-color="rgb(88.644409%, 72.096252%, 39.093018%)" offset="0.390625"/><stop stop-opacity="1" stop-color="rgb(88.859558%, 72.419739%, 39.407349%)" offset="0.398438"/><stop stop-opacity="1" stop-color="rgb(89.074707%, 72.741699%, 39.723206%)" offset="0.40625"/><stop stop-opacity="1" stop-color="rgb(89.28833%, 73.065186%, 40.037537%)" offset="0.414063"/><stop stop-opacity="1" stop-color="rgb(89.503479%, 73.388672%, 40.353394%)" offset="0.421875"/><stop stop-opacity="1" stop-color="rgb(89.718628%, 73.712158%, 40.667725%)" offset="0.429688"/><stop stop-opacity="1" stop-color="rgb(89.933777%, 74.035645%, 40.983582%)" offset="0.4375"/><stop stop-opacity="1" stop-color="rgb(90.148926%, 74.357605%, 41.297913%)" offset="0.445313"/><stop stop-opacity="1" stop-color="rgb(90.364075%, 74.681091%, 41.61377%)" offset="0.453125"/><stop stop-opacity="1" stop-color="rgb(90.579224%, 75.004578%, 41.928101%)" offset="0.460938"/><stop stop-opacity="1" stop-color="rgb(90.794373%, 75.328064%, 42.243958%)" offset="0.46875"/><stop stop-opacity="1" stop-color="rgb(91.009521%, 75.650024%, 42.558289%)" offset="0.476563"/><stop stop-opacity="1" stop-color="rgb(91.22467%, 75.973511%, 42.87262%)" offset="0.484375"/><stop stop-opacity="1" stop-color="rgb(91.439819%, 76.296997%, 43.188477%)" offset="0.492188"/><stop stop-opacity="1" stop-color="rgb(91.654968%, 76.620483%, 43.502808%)" offset="0.5"/><stop stop-opacity="1" stop-color="rgb(91.870117%, 76.94397%, 43.818665%)" offset="0.507812"/><stop stop-opacity="1" stop-color="rgb(92.085266%, 77.26593%, 44.132996%)" offset="0.515625"/><stop stop-opacity="1" stop-color="rgb(92.300415%, 77.589417%, 44.448853%)" offset="0.523438"/><stop stop-opacity="1" stop-color="rgb(92.515564%, 77.912903%, 44.763184%)" offset="0.53125"/><stop stop-opacity="1" stop-color="rgb(92.730713%, 78.236389%, 45.079041%)" offset="0.539062"/><stop stop-opacity="1" stop-color="rgb(92.944336%, 78.559875%, 45.393372%)" offset="0.546875"/><stop stop-opacity="1" stop-color="rgb(93.159485%, 78.881836%, 45.709229%)" offset="0.554688"/><stop stop-opacity="1" stop-color="rgb(93.374634%, 79.205322%, 46.02356%)" offset="0.5625"/><stop stop-opacity="1" stop-color="rgb(93.589783%, 79.528809%, 46.337891%)" offset="0.570312"/><stop stop-opacity="1" stop-color="rgb(93.804932%, 79.852295%, 46.653748%)" offset="0.578125"/><stop stop-opacity="1" stop-color="rgb(94.020081%, 80.175781%, 46.968079%)" offset="0.585938"/><stop stop-opacity="1" stop-color="rgb(94.235229%, 80.497742%, 47.283936%)" offset="0.59375"/><stop stop-opacity="1" stop-color="rgb(94.450378%, 80.821228%, 47.598267%)" offset="0.601562"/><stop stop-opacity="1" stop-color="rgb(94.665527%, 81.144714%, 47.914124%)" offset="0.609375"/><stop stop-opacity="1" stop-color="rgb(94.880676%, 81.468201%, 48.228455%)" offset="0.617188"/><stop stop-opacity="1" stop-color="rgb(95.095825%, 81.790161%, 48.544312%)" offset="0.625"/><stop stop-opacity="1" stop-color="rgb(95.310974%, 82.113647%, 48.858643%)" offset="0.632812"/><stop stop-opacity="1" stop-color="rgb(95.526123%, 82.437134%, 49.1745%)" offset="0.640625"/><stop stop-opacity="1" stop-color="rgb(95.741272%, 82.76062%, 49.488831%)" offset="0.648437"/><stop stop-opacity="1" stop-color="rgb(95.956421%, 83.084106%, 49.804688%)" offset="0.65625"/><stop stop-opacity="1" stop-color="rgb(96.17157%, 83.406067%, 50.119019%)" offset="0.664062"/><stop stop-opacity="1" stop-color="rgb(96.385193%, 83.729553%, 50.43335%)" offset="0.671875"/><stop stop-opacity="1" stop-color="rgb(96.513367%, 83.992004%, 50.709534%)" offset="0.679688"/><stop stop-opacity="1" stop-color="rgb(96.551514%, 84.191895%, 50.946045%)" offset="0.6875"/><stop stop-opacity="1" stop-color="rgb(96.588135%, 84.391785%, 51.18103%)" offset="0.695312"/><stop stop-opacity="1" stop-color="rgb(96.62323%, 84.590149%, 51.416016%)" offset="0.703125"/><stop stop-opacity="1" stop-color="rgb(96.659851%, 84.790039%, 51.651001%)" offset="0.710938"/><stop stop-opacity="1" stop-color="rgb(96.696472%, 84.988403%, 51.885986%)" offset="0.71875"/><stop stop-opacity="1" stop-color="rgb(96.731567%, 85.186768%, 52.119446%)" offset="0.726563"/><stop stop-opacity="1" stop-color="rgb(96.768188%, 85.386658%, 52.354431%)" offset="0.734375"/><stop stop-opacity="1" stop-color="rgb(96.803284%, 85.585022%, 52.589417%)" offset="0.742188"/><stop stop-opacity="1" stop-color="rgb(96.839905%, 85.783386%, 52.824402%)" offset="0.75"/><stop stop-opacity="1" stop-color="rgb(96.875%, 85.983276%, 53.059387%)" offset="0.757812"/><stop stop-opacity="1" stop-color="rgb(96.911621%, 86.181641%, 53.294373%)" offset="0.765625"/><stop stop-opacity="1" stop-color="rgb(96.946716%, 86.380005%, 53.529358%)" offset="0.773438"/><stop stop-opacity="1" stop-color="rgb(96.983337%, 86.579895%, 53.764343%)" offset="0.78125"/><stop stop-opacity="1" stop-color="rgb(97.019958%, 86.778259%, 53.999329%)" offset="0.789062"/><stop stop-opacity="1" stop-color="rgb(97.055054%, 86.976624%, 54.234314%)" offset="0.796875"/><stop stop-opacity="1" stop-color="rgb(97.091675%, 87.176514%, 54.467773%)" offset="0.804688"/><stop stop-opacity="1" stop-color="rgb(97.12677%, 87.374878%, 54.702759%)" offset="0.8125"/><stop stop-opacity="1" stop-color="rgb(97.163391%, 87.573242%, 54.937744%)" offset="0.820313"/><stop stop-opacity="1" stop-color="rgb(97.198486%, 87.773132%, 55.172729%)" offset="0.828125"/><stop stop-opacity="1" stop-color="rgb(97.235107%, 87.971497%, 55.407715%)" offset="0.835938"/><stop stop-opacity="1" stop-color="rgb(97.270203%, 88.169861%, 55.6427%)" offset="0.84375"/><stop stop-opacity="1" stop-color="rgb(97.306824%, 88.369751%, 55.877686%)" offset="0.851562"/><stop stop-opacity="1" stop-color="rgb(97.343445%, 88.568115%, 56.112671%)" offset="0.859375"/><stop stop-opacity="1" stop-color="rgb(97.37854%, 88.766479%, 56.347656%)" offset="0.867187"/><stop stop-opacity="1" stop-color="rgb(97.415161%, 88.96637%, 56.582642%)" offset="0.875"/><stop stop-opacity="1" stop-color="rgb(97.450256%, 89.164734%, 56.816101%)" offset="0.882812"/><stop stop-opacity="1" stop-color="rgb(97.486877%, 89.363098%, 57.051086%)" offset="0.890625"/><stop stop-opacity="1" stop-color="rgb(97.521973%, 89.562988%, 57.286072%)" offset="0.898438"/><stop stop-opacity="1" stop-color="rgb(97.558594%, 89.761353%, 57.521057%)" offset="0.90625"/><stop stop-opacity="1" stop-color="rgb(97.593689%, 89.959717%, 57.756042%)" offset="0.914062"/><stop stop-opacity="1" stop-color="rgb(97.63031%, 90.159607%, 57.991028%)" offset="0.921875"/><stop stop-opacity="1" stop-color="rgb(97.666931%, 90.357971%, 58.226013%)" offset="0.929688"/><stop stop-opacity="1" stop-color="rgb(97.702026%, 90.557861%, 58.460999%)" offset="0.9375"/><stop stop-opacity="1" stop-color="rgb(97.738647%, 90.756226%, 58.695984%)" offset="0.945312"/><stop stop-opacity="1" stop-color="rgb(97.773743%, 90.95459%, 58.930969%)" offset="0.953125"/><stop stop-opacity="1" stop-color="rgb(97.810364%, 91.15448%, 59.164429%)" offset="0.960937"/><stop stop-opacity="1" stop-color="rgb(97.845459%, 91.352844%, 59.399414%)" offset="0.96875"/><stop stop-opacity="1" stop-color="rgb(97.88208%, 91.551208%, 59.634399%)" offset="0.976562"/><stop stop-opacity="1" stop-color="rgb(97.917175%, 91.751099%, 59.869385%)" offset="0.984375"/><stop stop-opacity="1" stop-color="rgb(97.953796%, 91.949463%, 60.10437%)" offset="0.992188"/><stop stop-opacity="1" stop-color="rgb(97.98584%, 92.123413%, 60.310364%)" offset="1"/></linearGradient><clipPath id="29807a1617"><path d="M 53.679688 46.507812 L 124.476562 46.507812 L 124.476562 110.777344 L 53.679688 110.777344 Z M 53.679688 46.507812 " clip-rule="nonzero"/></clipPath><clipPath id="f13b16ca4a"><path d="M 63.386719 46.507812 L 114.695312 46.507812 C 120.058594 46.507812 124.402344 50.851562 124.402344 56.214844 L 124.402344 101.070312 C 124.402344 106.433594 120.058594 110.777344 114.695312 110.777344 L 63.386719 110.777344 C 58.023438 110.777344 53.679688 106.433594 53.679688 101.070312 L 53.679688 56.214844 C 53.679688 50.851562 58.023438 46.507812 63.386719 46.507812 Z M 63.386719 46.507812 " clip-rule="nonzero"/></clipPath><clipPath id="cd986b656c"><path d="M 57.257812 64 L 74 64 L 74 79 L 57.257812 79 Z M 57.257812 64 " clip-rule="nonzero"/></clipPath><clipPath id="ad862e54ce"><path d="M 57.257812 50 L 120.929688 50 L 120.929688 82 L 57.257812 82 Z M 57.257812 50 " clip-rule="nonzero"/></clipPath><clipPath id="d848f49be8"><path d="M 87.03125 73.042969 L 120.585938 73.042969 L 120.585938 106.597656 L 87.03125 106.597656 Z M 87.03125 73.042969 " clip-rule="nonzero"/></clipPath></defs><g fill="#f0d380" fill-opacity="1"><g transform="translate(154.108295, 89.86994)"><g><path d="M 37 0 L 22.140625 0 L 1.109375 -62.25 L 14.171875 -62.25 L 29.296875 -15.84375 L 30.359375 -15.84375 L 45.265625 -62.25 L 58 -62.25 Z M 37 0 "/></g></g></g><g fill="#f0d380" fill-opacity="1"><g transform="translate(213.201826, 89.86994)"><g><path d="M 20.390625 -27.34375 L 20.390625 -10.296875 L 50.109375 -10.296875 L 50.109375 0 L 8.09375 0 L 8.09375 -62.25 L 49.4375 -62.25 L 49.4375 -51.953125 L 20.390625 -51.953125 L 20.390625 -37.390625 L 45.765625 -37.390625 L 45.765625 -27.34375 Z M 20.390625 -27.34375 "/></g></g></g><g fill="#f0d380" fill-opacity="1"><g transform="translate(266.718092, 89.86994)"><g><path d="M 25.375 0.890625 C 18.707031 0.890625 13.414062 -0.519531 9.5 -3.34375 C 5.582031 -6.164062 3.097656 -10.160156 2.046875 -15.328125 L 11.375 -19.671875 L 12.34375 -19.5 C 13.394531 -16.0625 14.890625 -13.554688 16.828125 -11.984375 C 18.773438 -10.410156 21.484375 -9.625 24.953125 -9.625 C 28.296875 -9.625 30.847656 -10.40625 32.609375 -11.96875 C 34.367188 -13.53125 35.25 -15.800781 35.25 -18.78125 C 35.25 -21.695312 34.375 -23.9375 32.625 -25.5 C 30.882812 -27.0625 28.328125 -27.84375 24.953125 -27.84375 L 15.578125 -27.84375 L 15.578125 -37.421875 L 23.765625 -37.421875 C 26.546875 -37.421875 28.757812 -38.113281 30.40625 -39.5 C 32.050781 -40.894531 32.875 -42.882812 32.875 -45.46875 C 32.875 -48.03125 32.097656 -49.957031 30.546875 -51.25 C 29.003906 -52.539062 26.867188 -53.1875 24.140625 -53.1875 C 21.359375 -53.1875 18.894531 -52.53125 16.75 -51.21875 C 14.613281 -49.914062 12.890625 -48.15625 11.578125 -45.9375 L 10.609375 -45.765625 L 4.125 -53.3125 C 6.3125 -56.257812 9.125 -58.632812 12.5625 -60.4375 C 16 -62.238281 20.085938 -63.140625 24.828125 -63.140625 C 31.359375 -63.140625 36.335938 -61.773438 39.765625 -59.046875 C 43.203125 -56.328125 44.921875 -52.5 44.921875 -47.5625 C 44.921875 -44.582031 44.222656 -42.035156 42.828125 -39.921875 C 41.441406 -37.804688 39.441406 -35.984375 36.828125 -34.453125 L 36.828125 -33.546875 C 44.015625 -31.023438 47.609375 -25.914062 47.609375 -18.21875 C 47.609375 -14.363281 46.785156 -11 45.140625 -8.125 C 43.492188 -5.257812 41.007812 -3.039062 37.6875 -1.46875 C 34.363281 0.101562 30.257812 0.890625 25.375 0.890625 Z M 25.375 0.890625 "/></g></g></g><g fill="#5ce1e6" fill-opacity="1"><g transform="translate(318.24404, 89.86994)"><g><path d="M 12 0.390625 C 10.5 0.390625 9.171875 0.0820312 8.015625 -0.53125 C 6.867188 -1.144531 5.988281 -1.988281 5.375 -3.0625 C 4.769531 -4.144531 4.46875 -5.367188 4.46875 -6.734375 C 4.46875 -8.085938 4.769531 -9.300781 5.375 -10.375 C 5.988281 -11.457031 6.867188 -12.3125 8.015625 -12.9375 C 9.171875 -13.5625 10.5 -13.875 12 -13.875 C 13.539062 -13.875 14.882812 -13.566406 16.03125 -12.953125 C 17.175781 -12.347656 18.054688 -11.503906 18.671875 -10.421875 C 19.285156 -9.347656 19.59375 -8.128906 19.59375 -6.765625 C 19.59375 -4.691406 18.898438 -2.976562 17.515625 -1.625 C 16.140625 -0.28125 14.300781 0.390625 12 0.390625 Z M 12 0.390625 "/></g></g></g><g fill="#7ed957" fill-opacity="1"><g transform="translate(342.308741, 89.86994)"><g><path d="M 32.140625 -62.25 C 36.597656 -62.25 40.410156 -61.429688 43.578125 -59.796875 C 46.742188 -58.171875 49.132812 -55.890625 50.75 -52.953125 C 52.375 -50.015625 53.1875 -46.597656 53.1875 -42.703125 C 53.1875 -38.816406 52.375 -35.410156 50.75 -32.484375 C 49.132812 -29.566406 46.742188 -27.289062 43.578125 -25.65625 C 40.410156 -24.019531 36.597656 -23.203125 32.140625 -23.203125 L 20.390625 -23.203125 L 20.390625 0 L 8.09375 0 L 8.09375 -62.25 Z M 30.53125 -32.953125 C 37.375 -32.953125 40.796875 -36.203125 40.796875 -42.703125 C 40.796875 -49.234375 37.375 -52.5 30.53125 -52.5 L 20.390625 -52.5 L 20.390625 -32.953125 Z M 30.53125 -32.953125 "/></g></g></g><g fill="#7ed957" fill-opacity="1"><g transform="translate(399.188393, 89.86994)"><g><path d="M 19.5 0.890625 C 15.269531 0.890625 12.039062 -0.25 9.8125 -2.53125 C 7.582031 -4.820312 6.46875 -8.289062 6.46875 -12.9375 L 6.46875 -65.828125 L 18.265625 -65.828125 L 18.265625 -13.40625 C 18.265625 -10.539062 19.457031 -9.109375 21.84375 -9.109375 C 22.519531 -9.109375 23.242188 -9.222656 24.015625 -9.453125 L 24.609375 -9.28125 L 25.671875 -0.21875 C 25.023438 0.125 24.160156 0.394531 23.078125 0.59375 C 21.992188 0.789062 20.800781 0.890625 19.5 0.890625 Z M 19.5 0.890625 "/></g></g></g><g fill="#7ed957" fill-opacity="1"><g transform="translate(426.180683, 89.86994)"><g><path d="M 21.5 0.890625 C 16.21875 0.890625 12.320312 -0.546875 9.8125 -3.421875 C 7.300781 -6.304688 6.046875 -10.445312 6.046875 -15.84375 L 6.046875 -46.96875 L 17.84375 -46.96875 L 17.84375 -17.328125 C 17.84375 -14.460938 18.457031 -12.367188 19.6875 -11.046875 C 20.925781 -9.722656 22.835938 -9.0625 25.421875 -9.0625 C 28.679688 -9.0625 31.21875 -10.132812 33.03125 -12.28125 C 34.851562 -14.425781 35.765625 -17.796875 35.765625 -22.390625 L 35.765625 -46.96875 L 47.5625 -46.96875 L 47.5625 0 L 36.234375 0 L 36.234375 -6.890625 L 35.34375 -7.109375 C 33.832031 -4.410156 31.988281 -2.398438 29.8125 -1.078125 C 27.644531 0.234375 24.875 0.890625 21.5 0.890625 Z M 21.5 0.890625 "/></g></g></g><g fill="#7ed957" fill-opacity="1"><g transform="translate(480.50586, 89.86994)"><g><path d="M 21.96875 0.890625 C 18.757812 0.890625 15.820312 0.515625 13.15625 -0.234375 C 10.488281 -0.984375 8.207031 -2.019531 6.3125 -3.34375 C 4.425781 -4.664062 3.03125 -6.175781 2.125 -7.875 L 8.6875 -14.953125 L 9.578125 -14.953125 C 11.140625 -12.847656 12.984375 -11.269531 15.109375 -10.21875 C 17.242188 -9.164062 19.5625 -8.640625 22.0625 -8.640625 C 24.351562 -8.640625 26.082031 -9.050781 27.25 -9.875 C 28.414062 -10.695312 29 -11.875 29 -13.40625 C 29 -14.601562 28.578125 -15.601562 27.734375 -16.40625 C 26.898438 -17.21875 25.546875 -17.851562 23.671875 -18.3125 L 17.453125 -19.796875 C 12.796875 -20.898438 9.394531 -22.59375 7.25 -24.875 C 5.113281 -27.164062 4.046875 -30.070312 4.046875 -33.59375 C 4.046875 -36.519531 4.789062 -39.0625 6.28125 -41.21875 C 7.769531 -43.375 9.867188 -45.019531 12.578125 -46.15625 C 15.296875 -47.289062 18.457031 -47.859375 22.0625 -47.859375 C 26.289062 -47.859375 29.796875 -47.25 32.578125 -46.03125 C 35.359375 -44.8125 37.53125 -43.175781 39.09375 -41.125 L 32.78125 -34.3125 L 31.9375 -34.3125 C 30.625 -35.789062 29.148438 -36.867188 27.515625 -37.546875 C 25.890625 -38.234375 24.070312 -38.578125 22.0625 -38.578125 C 17.40625 -38.578125 15.078125 -37.128906 15.078125 -34.234375 C 15.078125 -33.015625 15.507812 -32.019531 16.375 -31.25 C 17.238281 -30.488281 18.765625 -29.863281 20.953125 -29.375 L 26.734375 -28.109375 C 31.503906 -27.078125 34.988281 -25.429688 37.1875 -23.171875 C 39.394531 -20.921875 40.5 -17.894531 40.5 -14.09375 C 40.5 -11.113281 39.757812 -8.488281 38.28125 -6.21875 C 36.800781 -3.945312 34.671875 -2.191406 31.890625 -0.953125 C 29.109375 0.273438 25.800781 0.890625 21.96875 0.890625 Z M 21.96875 0.890625 "/></g></g></g><g clip-path="url(#d21956d28b)"><g clip-path="url(#4a17455504)"><path fill="#f0d380" d="M 13.898438 0 L 125.621094 0 L 125.621094 112.160156 L 13.898438 112.160156 Z M 13.898438 0 " fill-opacity="1" fill-rule="nonzero"/></g></g><g clip-path="url(#30e9cf248c)"><g clip-path="url(#72a6ffa948)"><path fill="#000000" d="M 15.132812 1.203125 L 124.402344 1.203125 L 124.402344 110.898438 L 15.132812 110.898438 Z M 15.132812 1.203125 " fill-opacity="1" fill-rule="nonzero"/></g></g><g clip-path="url(#6c9d41fd1b)"><g clip-path="url(#14f18dc504)"><path fill="url(#bfa57d6db9)" d="M 15.132812 1.210938 L 15.132812 111.324219 L 124.402344 111.324219 L 124.402344 1.210938 Z M 15.132812 1.210938 " fill-rule="nonzero"/></g></g><g clip-path="url(#29807a1617)"><g clip-path="url(#f13b16ca4a)"><path fill="#000000" d="M 53.679688 46.507812 L 124.476562 46.507812 L 124.476562 110.777344 L 53.679688 110.777344 Z M 53.679688 46.507812 " fill-opacity="1" fill-rule="nonzero"/></g></g><path fill="#f4f6fc" d="M 91.191406 72.019531 L 81.519531 88.785156 L 77.179688 81.265625 C 74.054688 82.90625 71.097656 84.003906 68.441406 84.183594 L 81.519531 106.839844 L 107.859375 61.183594 C 102.933594 63.371094 97.113281 67.699219 91.191406 72.019531 " fill-opacity="1" fill-rule="nonzero"/><g clip-path="url(#cd986b656c)"><path fill="#f4f6fc" d="M 73.144531 74.277344 L 67.675781 64.804688 L 57.25 64.804688 L 64.878906 78.015625 C 67.269531 77.554688 70.078125 76.171875 73.144531 74.277344 " fill-opacity="1" fill-rule="nonzero"/></g><g clip-path="url(#ad862e54ce)"><path fill="#38b6ff" d="M 57.25 68.449219 C 65 110.714844 114.695312 31.859375 120.8125 65.230469 C 112.589844 20.371094 62.59375 97.59375 57.25 68.449219 " fill-opacity="1" fill-rule="nonzero"/></g><g clip-path="url(#d848f49be8)"><path fill="#43a047" d="M 120.570312 89.824219 C 120.570312 85.191406 118.695312 80.996094 115.664062 77.957031 C 112.628906 74.921875 108.441406 73.042969 103.8125 73.042969 C 99.183594 73.042969 94.992188 74.921875 91.960938 77.957031 C 88.929688 80.996094 87.050781 85.191406 87.050781 89.824219 C 87.050781 94.457031 88.929688 98.652344 91.960938 101.6875 C 94.992188 104.726562 99.183594 106.601562 103.8125 106.601562 C 108.441406 106.601562 112.628906 104.726562 115.664062 101.6875 C 118.695312 98.652344 120.570312 94.457031 120.570312 89.824219 " fill-opacity="1" fill-rule="evenodd"/></g><path fill="#ffffff" d="M 101.261719 100.980469 L 106.828125 100.980469 L 106.828125 92.84375 L 114.953125 92.84375 L 114.953125 86.804688 L 106.828125 86.804688 L 106.828125 78.667969 L 100.796875 78.667969 L 100.796875 86.804688 L 92.667969 86.804688 L 92.667969 92.84375 L 100.796875 92.84375 L 100.796875 100.980469 L 101.261719 100.980469 " fill-opacity="1" fill-rule="evenodd"/></svg>